<?xml version="1.0" encoding="utf-8"?>
<!-- Generator: Adobe Illustrator 27.4.0, SVG Export Plug-In . SVG Version: 6.00 Build 0)  -->
<svg version="1.1" id="Layer_1" xmlns="http://www.w3.org/2000/svg" xmlns:xlink="http://www.w3.org/1999/xlink" x="0px" y="0px"
	 viewBox="0 0 17.9 27.15" style="enable-background:new 0 0 17.9 27.15;" xml:space="preserve">
<style type="text/css">
	.st0{fill:#DC5532;stroke:#FFFFFF;stroke-width:0.25;stroke-linecap:round;stroke-linejoin:round;stroke-miterlimit:10;}
</style>
<g>
	<path class="st0" d="M14.19,21.43c0.11-0.16,0.26-0.28,0.41-0.4c1.5-1.16,2.65-2.6,2.9-4.51c0.17-1.25,0.13-2.55,0-3.82
		c-0.1-1.07-0.46-2.11-0.71-3.17c-0.06,1.21,0.01,2.39,0.03,3.56c0.02,1.74-0.08,3.52-1.41,4.79c-1.55,1.49-3.27,2.8-4.92,4.19
		c-0.07-0.06-0.15-0.12-0.22-0.18c0.37-0.66,0.66-1.38,1.12-1.96c0.6-0.75,1.31-1.42,2.01-2.08c0.8-0.75,1.49-1.57,1.88-2.61
		c0.8-2.14,0.62-4.25-0.42-6.23c-0.66-1.26-1.52-2.44-2.37-3.6c-1.13-1.54-2.41-2.97-3.09-4.8c-0.07-0.2-0.29-0.34-0.44-0.5
		c-0.15,0.17-0.38,0.31-0.45,0.5C7.9,2.28,6.77,3.61,5.75,5.01c-1,1.36-2.03,2.73-2.79,4.23c-1.36,2.69-1.12,6.5,1.74,8.8
		c0.8,0.65,1.48,1.48,2.12,2.29c0.36,0.46,0.54,1.06,0.8,1.6c-0.05,0.03-0.1,0.06-0.14,0.09c-1.39-1.1-2.78-2.2-4.16-3.3
		c-1.46-1.16-2.1-2.72-2.16-4.54c-0.03-0.83-0.01-1.66,0-2.48c0.01-0.68,0.06-1.37,0.09-2.05C1.19,9.64,1.13,9.63,1.07,9.62
		c-0.25,1.2-0.55,2.39-0.73,3.61c-0.46,3.04,0.31,5.67,2.79,7.65c0.24,0.19,0.49,0.38,0.73,0.57c-1.85-0.41-3.02-1.59-3.75-3.29
		c0,0.3,0.03,0.57,0.07,0.85c0.39,3.02,1.82,4.61,4.76,5.26c0.21,0.05,0.42,0.09,0.64,0.14c1.48,0.31,2.93,0.66,3.38,2.62
		c0.33-1.49,1.23-2.1,2.42-2.39c0.69-0.17,1.38-0.31,2.07-0.48c2.73-0.7,4.5-3.12,4.3-6C17.06,19.86,15.94,21,14.19,21.43z
		 M8.83,17.2c-2.61-0.09-4.55-2.19-4.49-4.94C4.4,9.93,6.6,7.92,9.06,7.96c2.49,0.04,4.54,2.14,4.49,4.62
		C13.63,15.18,11.29,17.28,8.83,17.2z"/>
	<path class="st0" d="M9.9,9.8c-1.26-0.37-2.65,0.05-3.41,1.03c-0.72,0.94-0.81,2.56-0.2,3.57c0.55,0.9,1.22,0.97,1.91,0.19
		c0.1-0.12,0.21-0.24,0.32-0.35c0.33-0.35,0.64-0.34,0.94,0.04c0.11,0.14,0.23,0.27,0.33,0.41c0.45,0.59,1.03,0.63,1.54,0.08
		c0.51-0.56,0.75-1.23,0.72-1.98c-0.01-0.1-0.02-0.18-0.03-0.26C11.92,11.13,11.18,10.18,9.9,9.8z"/>
</g>
</svg>
