<?xml version="1.0" encoding="utf-8"?>
<!-- Generator: Adobe Illustrator 27.4.0, SVG Export Plug-In . SVG Version: 6.00 Build 0)  -->
<svg version="1.1" id="Layer_1" xmlns="http://www.w3.org/2000/svg" xmlns:xlink="http://www.w3.org/1999/xlink" x="0px" y="0px"
	 viewBox="0 0 130 130" style="enable-background:new 0 0 130 130;" xml:space="preserve">
<style type="text/css">
	.st0{fill:#52A0AF;}
	.st1{fill:#7FC2D2;}
	.st2{fill:#E6B84D;}
	.st3{fill:#95C7D1;}
	.st4{fill:#478C9A;}
	.st5{fill:#5CA6B7;}
	.st6{fill:#5C798D;}
	.st7{fill:#E5C67E;}
	.st8{fill:#73828D;}
	.st9{fill:#9B8C33;}
	.st10{fill:#EFE9D8;}
	.st11{fill:#3B3B2A;}
	.st12{fill:#333334;}
	.st13{fill:#696028;}
	.st14{fill:#D7A93B;}
	.st15{fill:#1C4371;}
	.st16{fill:#264163;}
	.st17{fill:#1E324C;}
	.st18{fill:#C72F28;}
	.st19{fill:#F48567;}
	.st20{fill:#FFFFFF;}
	.st21{fill:none;stroke:#000000;stroke-width:4;stroke-linecap:round;stroke-linejoin:round;stroke-miterlimit:10;}
	.st22{fill:#F9E5B4;}
	.st23{fill:#C85C58;}
	.st24{fill:none;stroke:#FFFFFF;stroke-width:9.7229;stroke-miterlimit:10;}
</style>
<path class="st0" d="M-173.21,258.53c-4.49,7.71-7.99,16.03-13.24,23.25c-4.29,5.9-9.66,10.95-14,16.81
	c-4.34,5.86-7.7,12.94-7.04,20.21c0.73,7.99,6.3,14.89,13.03,19.25s14.6,6.57,22.32,8.73c9.69,2.7,19.38,5.41,29.07,8.11
	c16.21,4.52,32.54,9.07,49.31,10.34c3.35,0.25,6.77,0.37,10.03-0.43c8.3-2.04,13.97-9.42,19.43-16
	c10.82-13.04,23.36-24.6,33.99-37.8c5.13-6.36,9.79-13.08,14.45-19.8c3.97-5.71,7.98-11.51,10.29-18.07
	c2.34-6.62,2.84-13.73,3.17-20.74c0.41-8.67,0.58-17.36,0.52-26.05c-0.02-3.2-0.1-6.5-1.42-9.41c-2.57-5.67-9-8.31-14.85-10.43
	c-18-6.53-36.27-13.13-55.36-14.56c-8.23-0.62-16.66-0.29-24.57-2.67c-5.49-1.65-12.47-4.96-17.32-0.18
	c-4.13,4.07-7.12,10.44-11.09,14.94c-10.16,11.54-21.45,22.04-31.51,33.67C-163.62,244.2-168.88,251.07-173.21,258.53z"/>
<rect x="-798.59" y="655.69" class="st1" width="170.13" height="170.13"/>
<rect x="-684.75" y="-231.03" class="st2" width="79.66" height="79.66"/>
<rect x="-656.01" y="127.49" class="st3" width="303.45" height="303.45"/>
<rect x="-656.01" y="412.43" class="st4" width="303.45" height="111.72"/>
<rect x="-450.08" y="613.42" class="st1" width="303.45" height="303.45"/>
<rect x="-731.09" y="733.26" class="st5" width="15" height="15"/>
<rect x="-684.75" y="-139.06" class="st6" width="79.66" height="79.66"/>
<rect x="-684.75" y="-434.73" class="st7" width="79.66" height="79.66"/>
<rect x="-684.75" y="-342.77" class="st8" width="79.66" height="79.66"/>
<rect x="-592.08" y="-231.03" class="st9" width="79.66" height="79.66"/>
<rect x="-613.99" y="167.83" class="st10" width="228.79" height="221.09"/>
<rect x="-878.54" y="303.5" class="st10" width="228.79" height="221.09"/>
<rect x="-499.4" y="-231.03" class="st11" width="79.66" height="79.66"/>
<rect x="-695.84" y="393.05" class="st12" width="79.66" height="79.66"/>
<rect x="-499.4" y="-332.88" class="st13" width="79.66" height="79.66"/>
<rect x="-406.72" y="-231.03" class="st14" width="79.66" height="79.66"/>
<rect x="-499.4" y="287.89" class="st0" width="79.66" height="79.66"/>
<rect x="-592.08" y="-139.06" class="st15" width="79.66" height="79.66"/>
<rect x="-320.06" y="-501.46" class="st15" width="79.66" height="79.66"/>
<rect x="-611.43" y="653.6" class="st6" width="79.66" height="79.66"/>
<rect x="-518.75" y="653.6" class="st16" width="79.66" height="79.66"/>
<rect x="-583.95" y="-422.43" class="st17" width="79.66" height="79.66"/>
<rect x="-499.4" y="-139.06" class="st18" width="79.66" height="79.66"/>
<rect x="-585.43" y="199.56" class="st18" width="79.66" height="79.66"/>
<rect x="-406.72" y="-139.06" class="st19" width="79.66" height="79.66"/>
<rect x="-684.75" y="-41.61" style="fill:none;" width="357.97" height="133.5"/>
<text transform="matrix(1 0 0 1 -684.7517 -16.5848)"><tspan x="0" y="0" class="st16" style="font-family:'PlayfairDisplay-Black'; font-size:32px;">Playfair Display &amp; Lato </tspan><tspan x="0" y="24" class="st16" style="font-family:'Lato-Regular'; font-size:17px;">Lorem ipsum dolor sit amet, consectetuer </tspan><tspan x="0" y="43" class="st16" style="font-family:'Lato-Regular'; font-size:17px;">adipiLorem ipsum dolor sit amet, consectetuer </tspan><tspan x="0" y="62" class="st16" style="font-family:'Lato-Regular'; font-size:17px;">adipiLorem ipsum dolor sit amet, consectetuer </tspan><tspan x="0" y="81" class="st16" style="font-family:'Lato-Regular'; font-size:17px;">adipiscing elit, sed diam nonummy nibh </tspan><tspan x="0" y="100" class="st16" style="font-family:'Lato-Regular'; font-size:17px;">euismod tincidunt ut laoreet dolore magna</tspan><tspan x="316.61" y="100" class="st16" style="font-family:'HelveticaNeue'; font-size:17px;"> </tspan></text>
<circle class="st20" cx="-887.83" cy="634.45" r="11.79"/>
<circle class="st16" cx="-887.83" cy="634.45" r="6.95"/>
<rect x="-1031.9" y="-480.31" style="fill:none;" width="352.49" height="187.27"/>
<text transform="matrix(1 0 0 1 -1031.9033 -445.1247)"><tspan x="0" y="0" class="st10" style="font-family:'PlayfairDisplay-Black'; font-size:45px;">Baithakji:</tspan><tspan x="208.35" y="0" class="st10" style="font-family:'PlayfairDisplay-BlackItalic'; font-size:32px;"> </tspan><tspan x="0" y="42" class="st10" style="font-family:'Lato-Semibold'; font-size:32px;">Shri Vallabhacharya’s </tspan><tspan x="0" y="84" class="st10" style="font-family:'Lato-Semibold'; font-size:32px;">journey through India</tspan></text>
<g id="Fj8ICv_00000132069620390618875460000010760906750106341778_">
	<g>
		<path d="M-54.48-28.37c0.23,1.75,0.36,3.51,0.72,5.23c0.28,1.34,1.2,2.32,2.45,2.91c3.18,1.5,6.37,3.01,9.58,4.46
			c6.46,2.92,12.83,5.99,19.03,9.44c0.85,0.47,1.73,0.36,2.42-0.29c5.39-5.09,10.78-10.17,16.16-15.27
			c4.94-4.68,9.88-9.36,14.83-14.05c2.37-2.24,4.74-4.48,7.11-6.73c0.28-0.27,0.54-0.56,0.84-0.81c0.6-0.51,1.29-0.36,1.61,0.35
			c0.19,0.43,0.33,0.9,0.46,1.36c0.25,0.94,0.03,1.74-0.69,2.41c-1.28,1.2-2.55,2.42-3.81,3.63c-3.64,3.5-7.28,7-10.93,10.5
			c-3.05,2.92-6.11,5.82-9.16,8.73c-2.04,1.95-4.07,3.9-6.11,5.85c-2.56,2.45-5.12,4.9-7.68,7.36c-0.42,0.4-0.86,0.8-1.23,1.25
			c-0.8,0.95-1.82,1-2.91,0.73c-0.53-0.13-1.04-0.34-1.54-0.57c-8.89-4.18-17.78-8.37-26.67-12.55c-1.63-0.77-3.3-1.47-4.88-2.34
			c-1.01-0.56-1.94-1.3-2.83-2.06c-0.9-0.77-1.41-1.84-1.57-3c-0.3-2.12-0.54-4.25-0.77-6.38c-0.06-0.54-0.06-1.11,0.02-1.64
			c0.35-2.42-0.27-4.76-0.62-7.11c-0.61-4.09-0.56-8.12,0.61-12.1c0.58-1.97,1.64-3.56,3.3-4.87c4.18-3.31,8.25-6.77,12.36-10.16
			c5.69-4.69,11.38-9.39,17.06-14.08c1.16-0.96,2.32-1.93,3.47-2.89c0.75-0.63,1.64-0.91,2.59-0.96c2-0.12,3.87,0.25,5.71,1.11
			c6.6,3.07,13.23,6.05,19.86,9.06c2.88,1.31,5.77,2.61,8.66,3.92c0.18,0.08,0.35,0.17,0.52,0.27c0.98,0.56,1.45,1.65,0.99,2.67
			c-0.3,0.67-0.77,1.33-1.32,1.82C7.75-58.32,2.3-53.48-3.14-48.63c-4.84,4.32-9.68,8.65-14.51,12.97c-1.28,1.15-2.6,2.26-3.82,3.47
			c-1.1,1.09-2.33,1.15-3.62,0.6c-2.06-0.89-4.09-1.87-6.13-2.82c-4.83-2.24-9.67-4.49-14.5-6.74c-2.87-1.34-5.74-2.7-8.6-4.04
			c-1.07-0.5-1.19-0.46-1.15,0.71c0.1,2.6,0.16,5.21,0.45,7.79c0.21,1.9,1.34,3.27,3.15,4.09c5.62,2.56,11.25,5.11,16.82,7.79
			c3.82,1.84,7.55,3.9,11.31,5.87c0.84,0.44,1.71,0.41,2.31-0.16c7.56-7.15,15.12-14.3,22.67-21.46c4.94-4.68,9.88-9.37,14.82-14.05
			c0.51-0.49,1.02-0.99,1.55-1.45c0.68-0.59,1.4-0.38,1.71,0.46c0.14,0.38,0.27,0.77,0.39,1.15c0.33,1.07-0.1,1.89-0.86,2.61
			C11.93-45.18,4.99-38.54-1.95-31.9c-4.03,3.86-8.06,7.73-12.09,11.59c-1.88,1.8-3.87,3.51-5.64,5.41
			c-1.27,1.36-2.57,1.31-4.02,0.65c-3.25-1.49-6.48-3.02-9.72-4.54c-5.96-2.8-11.92-5.61-17.88-8.41c-0.97-0.46-1.97-0.84-2.96-1.26
			C-54.34-28.43-54.41-28.4-54.48-28.37z"/>
	</g>
</g>
<g id="jENRka_00000010307850803674534530000005147641977484711315_">
	<g>
		<path class="st19" d="M1.6,254.97c-0.19,5.86-3.93,11.45-6.6,15.5c-4.25,6.45-8.4,12.35-13.67,17.92
			c-15.03,15.89-29.94,31.95-44.47,48.29c-5.99,7.2-12.05,14.35-18.06,21.53c-1.82,2.17-1.8,2.18-4.5,1.38
			c-8.57-2.53-17.15-5.05-25.72-7.6c-10.44-3.1-20.87-6.2-31.29-9.34c-11.73-3.54-23.43-7.16-35.17-10.67
			c-5.39-1.61-9.02-5.18-11.31-10.11c-3.02-6.49-3.3-13.3-1.43-20.16c1.19-4.36,3.88-6.58,8.39-6.85c2.03-0.12,4.16,0.13,6.13,0.66
			c15.57,4.25,31.12,8.58,46.66,12.93c13.27,3.72,26.53,7.48,39.79,11.26c3.97,1.13,7.36,0.36,10.13-2.8
			c0.25-0.28,0.52-0.54,0.76-0.82c11.9-13.61,23.83-27.2,35.7-40.83c7.71-8.85,15.35-17.76,22.99-26.66
			c10.65-12.39,21.23-24.84,31.92-37.19c5.1-5.89,0.62-12.93-4.94-14.32c-6.1-1.53-12.27-2.8-18.41-4.18
			c-10.3-2.31-20.6-4.63-30.9-6.92c-18.38-4.1-36.76-8.2-55.16-12.25c-1.89-0.42-3.85-0.77-5.76-0.69
			c-2.81,0.11-4.89,1.88-6.72,3.87c-2.44,2.65-4.87,5.33-7.28,8.01c-11.67,12.98-23.35,25.96-35,38.96
			c-14.59,16.27-29.17,32.55-43.71,48.87c-1.79,2-3.52,4.11-4.91,6.4c-3.45,5.68-5.57,11.91-6.85,18.41
			c-1.45,7.33-1.91,14.72-0.51,22.11c1.67,8.82,6.11,16.09,12.71,22.12c2.74,2.5,5.74,4.48,9.24,5.68c2.82,0.97,5.61,2.01,8.46,2.87
			c21.92,6.58,43.84,13.15,65.78,19.65c10,2.96,20.04,5.75,30.08,8.58c3.4,0.96,6.26,0.07,8.56-2.7c3.02-3.64,6.14-7.19,9.17-10.82
			c14.01-16.76,28.41-34.11,42.51-51.15c7.42-8.96,14.83-17.92,22.23-26.88c6.01-7.27,15.59-15.61,16.92-25.49
			c1.03-7.6-9.36-15-16.29-13.64C1.52,249.97,1.68,252.4,1.6,254.97z"/>
		<path class="st20" d="M-50.2,239.23c-1.97-0.41-4.78-0.92-7.55-1.58c-13.98-3.31-27.96-6.61-41.92-9.99
			c-5.75-1.39-11.46-2.97-17.18-4.48c-3.12-0.83-3.87-2.9-1.85-5.44c2.01-2.53,4.18-4.94,6.29-7.38c2.51-2.9,5.74-3.23,9.21-2.45
			c9.05,2.03,18.11,4,27.12,6.17c12.27,2.95,24.51,6.06,36.76,9.12c0.96,0.24,1.93,0.52,2.8,0.98c1.65,0.88,2.05,2.65,0.88,4.1
			c-2.21,2.74-4.47,5.45-6.79,8.1C-44.23,238.43-46.66,239.18-50.2,239.23z"/>
	</g>
</g>
<path class="st21" d="M-90.35,324.37c-3.4,2.17-4.46,6.64-4.64,10.67c-0.35,8.03,1.67,16.14,5.74,23.06"/>
<path class="st21" d="M-2,229.68c0.18,7.34,0.36,14.68,0.54,22.02"/>
<g>
	<path class="st20" d="M79.15,130c-0.42,0-0.84-0.05-1.23-0.14c-0.95-0.22-1.97-0.46-3.03-0.79c-3.73-1.16-7.46-2.34-11.18-3.51
		l-47.64-14.98c-4.21-1.33-7.67-4.4-10.31-9.14c-2.61-4.7-4.22-10.3-4.77-16.65c-0.47-5.31-0.26-10.04,0.62-14.47
		c0.9-4.51,2.32-8.11,4.34-11.01c1.52-2.17,3.03-4.36,4.54-6.55c3.42-4.95,6.95-10.06,10.56-14.96
		C29.6,26.23,38.92,15.88,48.76,7.07c2.06-1.85,4.86-4.15,8.2-5.61c3.75-1.64,7.78-1.9,11.96-0.79c4.69,1.25,9.37,2.51,14.05,3.78
		c5.69,1.54,11.37,3.08,17.06,4.62c5.88,1.6,11.77,3.2,17.65,4.81c0.82,0.22,1.64,0.46,2.45,0.69c0.75,0.21,1.49,0.43,2.24,0.63
		c2.45,0.67,4.08,2.75,4.21,5.34h0.01l0.05,4.76c0,0.33,0,0.66,0.01,1c0.01,0.92,0.02,1.87-0.04,2.87c-0.05,0.84-0.27,2.45-1.2,3.89
		c-0.74,1.14-1.64,2.47-2.73,3.7c-0.25,0.29-0.57,1.01-0.65,2.81c-0.09,2,0.33,3.82,1.33,5.74c0.62,1.19,1.34,2.3,2.2,3.38
		c2.15,0.78,3.6,2.8,3.63,5.33l0.01,0.47c0.02,1.63,0.05,3.32,0.02,5.01c-0.03,1.64-0.74,2.98-1.15,3.62
		c-0.79,1.22-1.6,2.39-2.38,3.52L117.12,79c-10.81,15.56-21.63,31.12-32.44,46.69c-0.06,0.1-0.22,0.49-0.31,0.71
		C83.28,128.96,81.14,130,79.15,130z M63.95,9.52c-1.05,0-2.04,0.21-3.02,0.64c-2.07,0.9-4.08,2.58-5.6,3.94
		c-9.35,8.37-18.23,18.22-26.38,29.29c-3.52,4.77-7.01,9.83-10.39,14.72c-1.52,2.2-3.04,4.4-4.57,6.59
		c-1.26,1.8-2.18,4.24-2.82,7.45c-0.71,3.55-0.86,7.42-0.48,11.83c0.44,5.03,1.66,9.37,3.63,12.92c1.4,2.52,3,4.08,4.75,4.63
		l47.63,14.98c3.45,1.09,6.9,2.17,10.35,3.25c10.67-15.38,21.35-30.74,32.04-46.11l8.58-12.35c0.65-0.93,1.27-1.82,1.86-2.73
		c0-0.72,0-1.45-0.01-2.19c-0.14-0.13-0.27-0.26-0.38-0.38c-1.8-2-3.25-4.09-4.44-6.38c-1.76-3.39-2.53-6.81-2.37-10.46
		c0.1-2.36,0.53-5.82,3.02-8.63c0.55-0.62,1.1-1.41,1.57-2.11l-0.04-4.86c-0.6-0.17-1.21-0.34-1.81-0.51
		c-5.88-1.61-11.76-3.21-17.64-4.81c-5.68-1.54-11.36-3.08-17.05-4.62c-4.67-1.26-9.34-2.52-14.02-3.77
		C65.52,9.63,64.72,9.52,63.95,9.52z M123.63,48.34c0,0,0.01,0,0.02,0C123.64,48.34,123.64,48.34,123.63,48.34z"/>
	<g>
		<g id="pwZKoX.tif">
			<g>
				<path class="st20" d="M121.79,25.3c-0.02,0-0.04,0-0.05,0c0-1.46,0-2.93,0-4.39c0-0.65-0.23-0.99-0.67-1.12
					c-1.56-0.43-3.12-0.89-4.69-1.32c-5.88-1.61-11.76-3.21-17.64-4.81c-5.68-1.54-11.37-3.09-17.05-4.62
					C77,7.78,72.33,6.51,67.65,5.27c-2.93-0.78-5.84-0.7-8.7,0.54c-2.47,1.08-4.72,2.83-6.9,4.78C42.32,19.29,33.31,29.33,25,40.6
					C19.87,47.56,14.97,54.86,9.97,62c-1.81,2.59-2.89,5.76-3.58,9.23c-0.86,4.32-0.94,8.72-0.55,13.15
					c0.48,5.46,1.8,10.45,4.2,14.78c1.95,3.51,4.43,5.91,7.53,6.89c2.57,0.81,5.15,1.63,7.72,2.44c6.01,1.89,12.02,3.77,18.03,5.66
					c5.79,1.82,11.59,3.65,17.38,5.47c5.22,1.64,10.44,3.29,15.67,4.92c0.87,0.27,1.76,0.48,2.64,0.68
					c0.37,0.08,0.66-0.16,0.86-0.65c0.23-0.55,0.47-1.11,0.79-1.56c13.67-19.69,27.35-39.37,41.02-59.05
					c0.77-1.11,1.55-2.23,2.29-3.39c0.2-0.31,0.4-0.76,0.4-1.16c0.03-1.78,0-3.56-0.03-5.34c-0.01-0.72-0.31-0.99-0.8-0.99
					c-0.26,0-0.57-0.04-0.76-0.25c-1.41-1.57-2.68-3.33-3.75-5.38c-1.25-2.41-1.99-5.05-1.85-8.1c0.1-2.24,0.52-4.23,1.83-5.72
					c0.83-0.94,1.58-2.03,2.3-3.14c0.26-0.4,0.42-1.04,0.45-1.59C121.84,27.72,121.79,26.51,121.79,25.3z"/>
				<path class="st12" d="M121.79,25.3c0,1.2,0.05,2.41-0.02,3.61c-0.03,0.55-0.19,1.2-0.45,1.59c-0.72,1.11-1.47,2.2-2.3,3.14
					c-1.32,1.49-1.74,3.48-1.83,5.72c-0.13,3.05,0.6,5.69,1.85,8.1c1.07,2.06,2.34,3.82,3.75,5.38c0.19,0.21,0.5,0.24,0.76,0.25
					c0.49,0.01,0.79,0.28,0.8,0.99c0.03,1.78,0.06,3.56,0.03,5.34c-0.01,0.39-0.2,0.85-0.4,1.16c-0.74,1.16-1.52,2.27-2.29,3.39
					c-13.68,19.68-27.35,39.36-41.02,59.05c-0.31,0.45-0.55,1.01-0.79,1.56c-0.21,0.49-0.49,0.73-0.86,0.65
					c-0.88-0.2-1.77-0.41-2.64-0.68c-5.22-1.63-10.44-3.28-15.67-4.92c-5.79-1.82-11.59-3.65-17.38-5.47
					c-6.01-1.89-12.02-3.77-18.03-5.66c-2.57-0.81-5.15-1.62-7.72-2.44c-3.1-0.98-5.58-3.38-7.53-6.89
					c-2.41-4.33-3.72-9.32-4.2-14.78c-0.39-4.43-0.31-8.83,0.55-13.15c0.69-3.47,1.77-6.64,3.58-9.23c5-7.15,9.9-14.45,15.03-21.4
					c8.31-11.27,17.32-21.31,27.05-30.01c2.18-1.95,4.43-3.7,6.9-4.78c2.86-1.25,5.77-1.32,8.7-0.54C72.33,6.51,77,7.78,81.68,9.04
					c5.68,1.54,11.37,3.08,17.05,4.62c5.88,1.6,11.76,3.2,17.64,4.81c1.56,0.43,3.12,0.89,4.69,1.32c0.45,0.12,0.67,0.47,0.67,1.12
					c0,1.46,0,2.93,0,4.39C121.76,25.3,121.77,25.3,121.79,25.3z M14.42,58.21c0.04,0.09,0.08,0.19,0.12,0.28
					c2.59-0.27,5.13,0.23,7.64,1.01c6.28,1.94,12.55,3.92,18.83,5.88c8.03,2.51,16.06,5.03,24.09,7.54
					c4.65,1.46,9.3,2.91,13.94,4.41c0.44,0.14,0.68-0.07,0.96-0.46c6.44-9.01,12.9-18.01,19.33-27.04
					c6.47-9.08,12.93-18.19,19.39-27.29c0.19-0.26,0.41-0.47,0.62-0.71c-0.03-0.09-0.06-0.18-0.08-0.28
					c-0.29-0.11-0.58-0.24-0.87-0.32c-5.74-1.55-11.48-3.09-17.22-4.64c-4.32-1.17-8.63-2.37-12.95-3.54
					c-6.49-1.76-12.98-3.56-19.49-5.25c-1.72-0.45-3.49-0.79-5.23-0.78c-3.18,0-6.12,1.47-8.85,3.76c-1.56,1.31-3.08,2.73-4.6,4.14
					c-5.66,5.26-11.09,10.96-16.22,17.23c-6.52,7.97-12.8,16.32-18.72,25.2C14.91,57.68,14.66,57.93,14.42,58.21z M76.69,84.23
					c-19.08-6.05-38.02-12.05-57.1-18.1c0.22,1.31-0.25,1.8-0.82,2.23c-0.42,0.31-0.82,0.68-1.22,1.05
					c-1.28,1.19-2.53,2.43-3.43,4.23c-1.39,2.8-1.69,6.02-1.63,9.34c0.06,3.32,0.72,6.5,1.28,9.69c0.06,0.33,0.24,0.65,0.41,0.9
					c1.07,1.52,2.24,2.92,3.66,3.68c1.52,0.81,3.08,1.55,4.66,2.01c6.67,1.95,13.36,3.79,20.04,5.68
					c5.23,1.47,10.46,2.95,15.68,4.42c5.33,1.51,10.67,3.02,16,4.52c0.29,0.08,0.58,0.12,0.99,0.21c-0.18-0.35-0.27-0.52-0.35-0.68
					c-1.32-2.55-2.72-5.01-3.92-7.66c-0.73-1.62-1.27-3.48-1.7-5.32c-0.63-2.7-0.07-5.21,0.99-7.52c1.4-3.06,3.37-5.29,5.37-7.47
					C75.95,85.07,76.29,84.68,76.69,84.23z M120.26,23.45c-0.47,0.62-0.85,1.1-1.21,1.6c-5.41,7.57-10.81,15.14-16.21,22.72
					c-7.27,10.2-14.55,20.39-21.79,30.64c-0.77,1.09-1.51,1.32-2.51,1c-5.06-1.62-10.12-3.2-15.18-4.78
					c-6.65-2.09-13.31-4.18-19.96-6.26c-7.03-2.2-14.06-4.41-21.09-6.57c-2.33-0.71-4.67-1.35-7.08-1.16
					c-1.57,0.12-2.91,0.92-4.03,2.51c-1.19,1.68-2.1,3.63-2.71,5.85c-1.3,4.65-1.57,9.48-1.18,14.42c0.38,4.8,1.3,9.33,3.26,13.33
					c1.82,3.73,4.19,6.31,7.38,7.2c1.53,0.43,3.04,0.93,4.56,1.41c7.33,2.3,14.66,4.6,21.99,6.9c10.01,3.14,20.03,6.29,30.04,9.43
					c1.21,0.38,2.42,0.76,3.63,1.14c0.04-0.13,0.09-0.21,0.08-0.27c-0.16-1.68-0.31-3.37-0.5-5.04c-0.02-0.19-0.26-0.42-0.42-0.48
					c-0.6-0.21-1.22-0.34-1.83-0.52c-5.95-1.68-11.89-3.35-17.84-5.03c-7.44-2.1-14.87-4.2-22.31-6.29c-3.7-1.04-7.4-2.07-11.1-3.13
					c-2.26-0.65-4.52-1.21-6.66-2.6c-6.95-4.53-10.42-16.35-7.67-26.33c1.59-5.79,5.11-9.3,9.31-8.98c1.72,0.13,3.44,0.7,5.14,1.23
					c6.62,2.06,13.23,4.18,19.84,6.28c7.92,2.51,15.84,5.02,23.75,7.54c4.09,1.3,8.18,2.62,12.28,3.89c0.24,0.07,0.6-0.15,0.79-0.41
					c2.56-3.49,5.09-7.02,7.65-10.51c6.45-8.82,12.91-17.62,19.36-26.43c3.92-5.36,7.84-10.72,11.75-16.09
					c0.19-0.26,0.45-0.61,0.46-0.92C120.28,27.03,120.26,25.34,120.26,23.45z M115.61,38.39c-0.14,0.13-0.24,0.2-0.31,0.3
					c-5.19,7.13-10.36,14.29-15.57,21.4c-6.05,8.27-12.12,16.51-18.18,24.77c-0.33,0.45-0.68,0.67-1.14,0.5
					c-0.46-0.17-0.93-0.32-1.4-0.37c-0.26-0.03-0.58,0.05-0.79,0.25c-0.71,0.69-1.38,1.46-2.07,2.21c-1.6,1.75-3.15,3.59-4.38,5.92
					c-1.26,2.41-1.61,5.04-0.8,7.83c0.47,1.61,1,3.22,1.7,4.63c1.32,2.67,2.78,5.19,4.17,7.78c0.24,0.45,0.48,0.91,0.81,1.54
					c14.82-20.18,29.6-40.3,44.39-60.44c-1.62-1.89-3.08-3.83-4.25-6.17c-1.42-2.85-2.43-5.91-2.15-9.55
					C115.67,38.82,115.63,38.64,115.61,38.39z M79.7,121.3c0.27-0.36,0.45-0.59,0.63-0.84c3.56-5.1,7.13-10.19,10.67-15.31
					c10.39-15,20.76-30.03,31.18-45.01c0.72-1.03,0.74-2.07,0.67-3.49c-0.44,0.55-0.8,0.98-1.14,1.44
					c-2.78,3.8-5.54,7.63-8.33,11.42c-4.42,6.01-8.87,11.98-13.29,17.99c-6.68,9.08-13.34,18.19-20.04,27.24
					c-0.66,0.89-1.01,1.68-0.73,3.01C79.53,118.85,79.56,120,79.7,121.3z M10.97,84.87c-0.14-3.77-0.01-7.48,1.23-10.91
					c1.27-3.51,3.57-5.42,5.8-7.47c-0.15-0.07-0.29-0.1-0.42-0.07c-2.19,0.47-3.99,1.92-5.22,4.58c-1.16,2.52-1.78,5.32-1.88,8.34
					C10.43,81.21,10.52,83.07,10.97,84.87z"/>
				<path class="st14" d="M14.42,58.21c0.23-0.28,0.49-0.53,0.7-0.84c5.92-8.89,12.19-17.24,18.72-25.2
					c5.13-6.27,10.56-11.97,16.22-17.23c1.52-1.41,3.04-2.83,4.6-4.14c2.73-2.29,5.67-3.76,8.85-3.76c1.74,0,3.51,0.34,5.23,0.78
					c6.5,1.69,12.99,3.48,19.49,5.25c4.32,1.17,8.63,2.37,12.95,3.54c5.74,1.55,11.48,3.09,17.22,4.64
					c0.29,0.08,0.58,0.21,0.87,0.32c0.03,0.09,0.06,0.18,0.08,0.28c-0.21,0.23-0.43,0.44-0.62,0.71
					c-6.46,9.09-12.92,18.21-19.39,27.29C92.9,58.86,86.44,67.85,80,76.87c-0.28,0.39-0.52,0.6-0.96,0.46
					c-4.64-1.49-9.29-2.95-13.94-4.41c-8.03-2.52-16.06-5.03-24.09-7.54c-6.28-1.96-12.55-3.94-18.83-5.88
					c-2.51-0.78-5.05-1.28-7.64-1.01C14.5,58.39,14.46,58.3,14.42,58.21z"/>
				<path class="st22" d="M76.69,84.23c-0.41,0.46-0.74,0.85-1.09,1.22c-2,2.18-3.97,4.41-5.37,7.47c-1.05,2.31-1.61,4.82-0.99,7.52
					c0.43,1.84,0.97,3.7,1.7,5.32c1.2,2.65,2.6,5.12,3.92,7.66c0.08,0.16,0.17,0.33,0.35,0.68c-0.42-0.09-0.71-0.13-0.99-0.21
					c-5.33-1.51-10.67-3.02-16-4.52c-5.23-1.48-10.46-2.95-15.68-4.42c-6.68-1.88-13.37-3.72-20.04-5.68
					c-1.58-0.46-3.14-1.2-4.66-2.01c-1.42-0.76-2.59-2.16-3.66-3.68c-0.18-0.25-0.36-0.57-0.41-0.9c-0.56-3.19-1.22-6.37-1.28-9.69
					c-0.06-3.32,0.24-6.54,1.63-9.34c0.9-1.81,2.16-3.04,3.43-4.23c0.4-0.37,0.8-0.74,1.22-1.05c0.58-0.43,1.04-0.92,0.82-2.23
					C38.67,72.17,57.62,78.18,76.69,84.23z M70,108.61c0.42-0.03,0.75-0.21,0.85-0.83c0.11-0.63-0.17-0.98-0.53-1.2
					c-0.17-0.1-0.35-0.17-0.52-0.22c-3.93-1.15-7.85-2.31-11.78-3.44c-6.14-1.77-12.28-3.51-18.41-5.28c-6.96-2-13.92-4.01-20.89-6
					c-0.63-0.18-1.26-0.34-1.9-0.37c-0.22-0.01-0.54,0.35-0.64,0.65c-0.08,0.28,0,0.82,0.15,1.05c0.18,0.27,0.51,0.38,0.79,0.46
					c3.89,1.13,7.79,2.24,11.68,3.36c7.99,2.3,15.98,4.59,23.96,6.89c4.4,1.26,8.8,2.53,13.19,3.79
					C67.31,107.86,68.65,108.23,70,108.61z M67.05,101.01c0.42-0.08,0.79-0.2,0.89-0.88c0.09-0.65-0.21-0.95-0.58-1.15
					c-0.14-0.07-0.28-0.13-0.42-0.18c-2.69-0.81-5.37-1.63-8.06-2.43c-6.07-1.8-12.15-3.6-18.23-5.39
					c-7.42-2.19-14.85-4.36-22.27-6.54c-1.08-0.32-2.15-0.65-3.23-0.94c-0.55-0.15-0.93,0.17-1.05,0.79
					c-0.1,0.58,0.19,1.13,0.71,1.35c0.11,0.04,0.21,0.09,0.32,0.12c1.58,0.46,3.16,0.92,4.74,1.38c5.67,1.67,11.33,3.34,17,5.01
					c4.79,1.41,9.57,2.83,14.36,4.24c4.02,1.18,8.03,2.37,12.05,3.54C64.54,100.3,65.8,100.65,67.05,101.01z M66.98,93.23
					c0.45,0.02,0.76-0.25,0.88-0.86c0.11-0.6-0.17-0.93-0.5-1.16c-0.18-0.12-0.38-0.2-0.57-0.26c-3.18-0.92-6.35-1.83-9.53-2.74
					c-6.28-1.8-12.56-3.6-18.85-5.4c-6.95-1.98-13.9-3.95-20.84-5.92c-0.77-0.22-1.54-0.45-2.32-0.64
					c-0.67-0.17-1.04,0.09-1.14,0.77c-0.1,0.67,0.19,1.14,0.83,1.36c0.18,0.06,0.36,0.12,0.54,0.17c6.61,1.89,13.22,3.77,19.83,5.65
					c9.3,2.65,18.6,5.31,27.91,7.96C64.46,92.53,65.72,92.88,66.98,93.23z M70.98,86.51c0.17-0.16,0.52-0.31,0.66-0.64
					c0.29-0.64,0.08-1.26-0.51-1.48c-1.03-0.38-2.07-0.69-3.11-0.98c-6.16-1.75-12.33-3.48-18.49-5.23
					c-4.96-1.4-9.91-2.81-14.87-4.23c-4.31-1.23-8.62-2.46-12.93-3.69c-0.9-0.25-1.8-0.49-2.7-0.68c-0.41-0.09-0.79,0.1-0.88,0.77
					c-0.09,0.69,0.2,1.07,0.62,1.29c0.1,0.05,0.21,0.09,0.32,0.13c0.75,0.22,1.51,0.44,2.26,0.66c6.45,1.83,12.9,3.66,19.35,5.49
					c4.44,1.26,8.87,2.52,13.31,3.78c4.44,1.26,8.87,2.52,13.31,3.78C68.48,85.81,69.65,86.14,70.98,86.51z"/>
				<path class="st14" d="M120.26,23.45c0,1.89,0.02,3.58-0.02,5.27c-0.01,0.32-0.27,0.66-0.46,0.92
					c-3.91,5.37-7.83,10.73-11.75,16.09c-6.45,8.81-12.91,17.61-19.36,26.43c-2.56,3.49-5.09,7.02-7.65,10.51
					c-0.19,0.26-0.56,0.49-0.79,0.41c-4.1-1.27-8.19-2.59-12.28-3.89c-7.92-2.52-15.83-5.02-23.75-7.54
					c-6.61-2.1-13.22-4.22-19.84-6.28c-1.7-0.53-3.41-1.1-5.14-1.23c-4.19-0.32-7.71,3.19-9.31,8.98
					c-2.74,9.98,0.72,21.8,7.67,26.33c2.13,1.39,4.4,1.95,6.66,2.6c3.7,1.07,7.4,2.09,11.1,3.13c7.44,2.1,14.87,4.2,22.31,6.29
					c5.95,1.68,11.89,3.35,17.84,5.03c0.61,0.17,1.23,0.31,1.83,0.52c0.16,0.06,0.4,0.29,0.42,0.48c0.19,1.68,0.34,3.36,0.5,5.04
					c0.01,0.06-0.04,0.14-0.08,0.27c-1.21-0.38-2.42-0.76-3.63-1.14c-10.01-3.14-20.03-6.29-30.04-9.43
					c-7.33-2.3-14.66-4.6-21.99-6.9c-1.52-0.48-3.04-0.98-4.56-1.41c-3.19-0.89-5.56-3.47-7.38-7.2c-1.96-4-2.88-8.53-3.26-13.33
					c-0.39-4.94-0.12-9.77,1.18-14.42c0.62-2.21,1.52-4.17,2.71-5.85c1.12-1.58,2.47-2.38,4.03-2.51c2.41-0.19,4.75,0.45,7.08,1.16
					c7.04,2.16,14.06,4.37,21.09,6.57c6.65,2.08,13.31,4.17,19.96,6.26c5.06,1.59,10.13,3.16,15.18,4.78c1,0.32,1.73,0.09,2.51-1
					c7.24-10.25,14.52-20.44,21.79-30.64c5.4-7.58,10.81-15.15,16.21-22.72C119.41,24.56,119.79,24.08,120.26,23.45z"/>
				<path class="st22" d="M115.61,38.39c0.02,0.26,0.06,0.43,0.05,0.59c-0.29,3.64,0.72,6.7,2.15,9.55
					c1.17,2.34,2.63,4.28,4.25,6.17c-14.79,20.14-29.57,40.26-44.39,60.44c-0.33-0.63-0.57-1.09-0.81-1.54
					c-1.4-2.59-2.86-5.11-4.17-7.78c-0.7-1.41-1.23-3.03-1.7-4.63c-0.81-2.79-0.46-5.43,0.8-7.83c1.22-2.33,2.77-4.16,4.38-5.92
					c0.68-0.75,1.36-1.52,2.07-2.21c0.21-0.2,0.53-0.28,0.79-0.25c0.47,0.05,0.94,0.2,1.4,0.37c0.47,0.17,0.81-0.05,1.14-0.5
					c6.06-8.26,12.13-16.49,18.18-24.77c5.2-7.11,10.38-14.27,15.57-21.4C115.38,38.59,115.47,38.52,115.61,38.39z M76.8,112.25
					c0.13-0.11,0.4-0.28,0.6-0.54c1.33-1.72,2.64-3.47,3.97-5.21c4.62-6.05,9.23-12.11,13.85-18.16
					c7.28-9.54,14.56-19.07,21.84-28.6c0.88-1.15,1.74-2.32,2.6-3.5c0.41-0.56,0.45-1.15,0.16-1.59c-0.28-0.43-0.72-0.41-1.14,0.06
					c-0.16,0.18-0.3,0.38-0.45,0.57c-5.83,7.65-11.66,15.3-17.49,22.95c-4.61,6.06-9.22,12.13-13.83,18.19
					c-3.32,4.36-6.65,8.7-9.97,13.06c-0.29,0.39-0.59,0.8-0.81,1.27C75.79,111.51,76.05,112.22,76.8,112.25z M73.25,100.46
					c0.29-0.26,0.56-0.43,0.77-0.7c0.85-1.08,1.67-2.2,2.51-3.3c6.07-7.94,12.14-15.87,18.21-23.81
					c6.55-8.58,13.1-17.16,19.65-25.74c0.23-0.3,0.54-0.57,0.64-0.94c0.11-0.4,0.1-0.99-0.04-1.34c-0.09-0.21-0.56-0.23-0.82-0.14
					c-0.24,0.09-0.44,0.44-0.64,0.71c-3.34,4.37-6.66,8.75-10.01,13.11c-4.64,6.06-9.29,12.09-13.93,18.15
					c-5.34,6.98-10.67,13.98-16,20.97c-0.3,0.39-0.63,0.75-0.85,1.22c-0.14,0.3-0.18,0.81-0.1,1.14
					C72.7,100.07,73.01,100.22,73.25,100.46z M74.68,104.87c0,1.01,0.48,1.47,0.96,1.12c0.33-0.25,0.64-0.62,0.91-0.99
					c2.81-3.72,5.6-7.47,8.4-11.19c5.42-7.2,10.85-14.4,16.27-21.59c4.55-6.04,9.1-12.08,13.65-18.12c0.56-0.75,1.12-1.51,1.67-2.28
					c0.29-0.4,0.34-0.86,0.07-1.33c-0.27-0.48-0.61-0.55-0.97-0.21c-0.18,0.17-0.36,0.36-0.52,0.58c-2.9,3.85-5.79,7.71-8.69,11.57
					c-4.97,6.62-9.95,13.24-14.93,19.85c-4.02,5.35-8.05,10.7-12.08,16.04c-1.41,1.87-2.84,3.71-4.25,5.58
					C74.95,104.22,74.79,104.66,74.68,104.87z"/>
				<path class="st20" d="M79.7,121.3c-0.13-1.3-0.17-2.46-0.39-3.54c-0.27-1.33,0.07-2.12,0.73-3.01
					c6.7-9.05,13.36-18.16,20.04-27.24c4.42-6.01,8.87-11.98,13.29-17.99c2.79-3.79,5.55-7.62,8.33-11.42
					c0.34-0.46,0.7-0.89,1.14-1.44c0.07,1.42,0.05,2.45-0.67,3.49c-10.41,14.97-20.79,30-31.18,45.01
					c-3.55,5.12-7.11,10.21-10.67,15.31C80.15,120.71,79.96,120.94,79.7,121.3z"/>
				<path class="st20" d="M10.97,84.87c-0.46-1.8-0.55-3.66-0.49-5.54c0.1-3.01,0.71-5.82,1.88-8.34c1.23-2.66,3.03-4.11,5.22-4.58
					c0.13-0.03,0.27,0,0.42,0.07c-2.23,2.06-4.54,3.97-5.8,7.47C10.96,77.39,10.83,81.1,10.97,84.87z"/>
				<path class="st20" d="M70,108.61c-1.35-0.38-2.69-0.75-4.04-1.14c-4.4-1.26-8.8-2.53-13.19-3.79
					c-7.99-2.3-15.98-4.59-23.96-6.89c-3.9-1.12-7.79-2.23-11.68-3.36c-0.28-0.08-0.61-0.19-0.79-0.46
					c-0.15-0.23-0.24-0.77-0.15-1.05c0.09-0.3,0.42-0.66,0.64-0.65c0.64,0.03,1.27,0.19,1.9,0.37c6.96,1.99,13.92,4,20.89,6
					c6.14,1.76,12.28,3.51,18.41,5.28c3.93,1.13,7.86,2.29,11.78,3.44c0.18,0.05,0.36,0.12,0.52,0.22c0.37,0.22,0.64,0.57,0.53,1.2
					C70.75,108.39,70.42,108.57,70,108.61z"/>
				<path class="st20" d="M67.05,101.01c-1.26-0.36-2.51-0.71-3.77-1.08c-4.02-1.18-8.03-2.36-12.05-3.54
					c-4.79-1.41-9.57-2.83-14.36-4.24c-5.67-1.67-11.33-3.34-17-5.01c-1.58-0.46-3.16-0.92-4.74-1.38
					c-0.11-0.03-0.21-0.07-0.32-0.12c-0.53-0.22-0.81-0.77-0.71-1.35c0.11-0.62,0.5-0.94,1.05-0.79c1.08,0.3,2.15,0.63,3.23,0.94
					c7.42,2.18,14.85,4.36,22.27,6.54c6.08,1.79,12.15,3.59,18.23,5.39c2.69,0.8,5.37,1.62,8.06,2.43c0.14,0.04,0.28,0.1,0.42,0.18
					c0.37,0.2,0.66,0.5,0.58,1.15C67.85,100.81,67.48,100.93,67.05,101.01z"/>
				<path class="st20" d="M66.98,93.23c-1.26-0.35-2.52-0.7-3.77-1.06c-9.3-2.65-18.6-5.31-27.91-7.96
					c-6.61-1.88-13.22-3.77-19.83-5.65c-0.18-0.05-0.36-0.11-0.54-0.17c-0.65-0.22-0.93-0.69-0.83-1.36
					c0.1-0.68,0.47-0.94,1.14-0.77c0.77,0.2,1.55,0.42,2.32,0.64c6.95,1.97,13.9,3.94,20.84,5.92c6.28,1.79,12.56,3.6,18.85,5.4
					c3.18,0.91,6.35,1.82,9.53,2.74c0.2,0.06,0.39,0.14,0.57,0.26c0.33,0.23,0.61,0.55,0.5,1.16
					C67.74,92.98,67.43,93.25,66.98,93.23z"/>
				<path class="st20" d="M70.98,86.51c-1.33-0.37-2.5-0.7-3.66-1.03c-4.44-1.26-8.87-2.52-13.31-3.78
					c-4.44-1.26-8.87-2.52-13.31-3.78c-6.45-1.83-12.9-3.66-19.35-5.49c-0.75-0.21-1.51-0.44-2.26-0.66
					c-0.11-0.03-0.21-0.07-0.32-0.13c-0.42-0.22-0.71-0.6-0.62-1.29c0.09-0.67,0.47-0.86,0.88-0.77c0.9,0.19,1.81,0.43,2.7,0.68
					c4.31,1.22,8.62,2.46,12.93,3.69c4.96,1.41,9.91,2.82,14.87,4.23c6.16,1.75,12.33,3.48,18.49,5.23c1.04,0.3,2.08,0.6,3.11,0.98
					c0.58,0.21,0.79,0.83,0.51,1.48C71.49,86.2,71.15,86.35,70.98,86.51z"/>
				<path class="st20" d="M76.8,112.25c-0.75-0.03-1.02-0.74-0.67-1.5c0.22-0.47,0.52-0.88,0.81-1.27c3.32-4.36,6.65-8.7,9.97-13.06
					c4.61-6.06,9.22-12.13,13.83-18.19c5.83-7.65,11.66-15.3,17.49-22.95c0.15-0.19,0.29-0.39,0.45-0.57
					c0.42-0.47,0.85-0.49,1.14-0.06c0.29,0.43,0.25,1.03-0.16,1.59c-0.86,1.18-1.72,2.35-2.6,3.5c-7.28,9.54-14.56,19.07-21.84,28.6
					c-4.62,6.05-9.23,12.11-13.85,18.16c-1.32,1.73-2.64,3.48-3.97,5.21C77.2,111.97,76.93,112.14,76.8,112.25z"/>
				<path class="st20" d="M73.25,100.46c-0.24-0.24-0.55-0.39-0.61-0.66c-0.08-0.34-0.04-0.85,0.1-1.14
					c0.22-0.47,0.55-0.83,0.85-1.22c5.33-6.99,10.66-13.99,16-20.97c4.64-6.06,9.29-12.09,13.93-18.15
					c3.34-4.36,6.67-8.74,10.01-13.11c0.2-0.26,0.4-0.61,0.64-0.71c0.26-0.1,0.72-0.08,0.82,0.14c0.15,0.34,0.15,0.94,0.04,1.34
					c-0.1,0.38-0.41,0.64-0.64,0.94c-6.55,8.58-13.1,17.16-19.65,25.74C88.67,80.6,82.6,88.53,76.53,96.47
					c-0.84,1.1-1.66,2.21-2.51,3.3C73.81,100.03,73.54,100.2,73.25,100.46z"/>
				<path class="st20" d="M74.68,104.87c0.11-0.21,0.27-0.65,0.51-0.97c1.41-1.88,2.84-3.72,4.25-5.58
					c4.03-5.34,8.05-10.69,12.08-16.04c4.98-6.61,9.95-13.23,14.93-19.85c2.9-3.85,5.79-7.71,8.69-11.57
					c0.16-0.21,0.34-0.4,0.52-0.58c0.36-0.35,0.7-0.27,0.97,0.21c0.27,0.47,0.22,0.92-0.07,1.33c-0.55,0.77-1.11,1.53-1.67,2.28
					c-4.55,6.04-9.1,12.08-13.65,18.12c-5.42,7.2-10.85,14.39-16.27,21.59c-2.8,3.73-5.6,7.47-8.4,11.19
					c-0.28,0.37-0.58,0.74-0.91,0.99C75.17,106.34,74.69,105.88,74.68,104.87z"/>
			</g>
		</g>
		<g>
			<g>
				<path class="st20" d="M58.67,23.9c0.52-1.46,0.79-2.2,1.31-3.66c-0.75-0.21-1.12-0.32-1.87-0.53c-0.13-0.36-0.2-0.54-0.33-0.9
					c-0.1-0.2-0.15-0.3-0.25-0.51c0.03-0.08,0.04-0.11,0.07-0.19c2.51,0.72,3.76,1.08,6.27,1.79c0.13,0.36,0.2,0.54,0.33,0.9
					c0.1,0.2,0.15,0.3,0.25,0.51c-0.03,0.08-0.04,0.11-0.07,0.19c-1.07-0.31-1.61-0.46-2.68-0.76c-1.43,4-2.15,6-3.58,10
					c-0.12-0.03-0.18-0.05-0.3-0.08c-0.18-0.23-0.28-0.35-0.46-0.58c-0.27-0.27-0.41-0.41-0.69-0.69c0,0,0.66-1.55,1.59-4.15
					c-1.58-0.45-2.37-0.68-3.95-1.13c-0.24,0.66-0.35,0.99-0.59,1.64c-0.37-0.11-0.55-0.16-0.92-0.26c-0.7-1.09-0.95-2.14-0.77-2.62
					c0.11-0.31,0.33-0.43,1.16-0.52c0,0,0.17-0.76,0.66-2.15c0.18-0.5,0.27-0.75,0.45-1.25c0.07-0.21,0-0.36-0.38-0.47
					c-0.57-0.16-1.1-0.09-1.62,0.16c-0.19-0.7-0.29-1.05-0.48-1.76c0.58-0.16,1.14-0.16,1.81,0.03c0.61,0.17,1.07,0.54,1.5,1.13
					c0.52,0.7,0.85,1.38,0.57,2.16c-0.37,1.04-0.56,1.56-0.93,2.6C56.34,23.24,57.12,23.46,58.67,23.9z"/>
				<path class="st20" d="M67.12,22.28c-1.43,4-2.15,6-3.58,10c-0.12-0.03-0.18-0.05-0.29-0.08c-0.18-0.23-0.28-0.35-0.46-0.59
					c-0.27-0.27-0.41-0.41-0.69-0.69c1.31-3.66,1.96-5.48,3.27-9.14c-0.79-0.23-1.19-0.34-1.99-0.57c-0.13-0.36-0.2-0.54-0.33-0.9
					c-0.1-0.2-0.15-0.3-0.25-0.51c0.03-0.08,0.04-0.11,0.07-0.19c2.56,0.73,3.83,1.1,6.39,1.83c0.14,0.36,0.21,0.55,0.35,0.91
					c0.1,0.2,0.15,0.3,0.25,0.51c-0.03,0.08-0.04,0.11-0.07,0.19C68.72,22.74,68.19,22.59,67.12,22.28z"/>
				<path class="st20" d="M68.46,21.85c-0.1-0.2-0.15-0.3-0.25-0.51c0.03-0.08,0.04-0.11,0.07-0.19c4.66,1.33,6.99,2,11.64,3.33
					c0.13,0.36,0.2,0.54,0.33,0.9c0.1,0.2,0.15,0.3,0.25,0.51c-0.03,0.08-0.04,0.11-0.07,0.19c-1.07-0.31-1.61-0.46-2.68-0.76
					c-1.43,4-2.15,6-3.58,9.99c-0.12-0.03-0.18-0.05-0.29-0.08c-0.18-0.23-0.28-0.35-0.46-0.58c-0.27-0.27-0.4-0.41-0.67-0.68
					c1.31-3.66,1.96-5.48,3.27-9.14c-1.4-0.4-2.1-0.6-3.5-1c-0.85,2.38-1.28,3.56-2.13,5.94c-0.41-0.12-0.61-0.18-1.02-0.29
					c-0.47-0.8-1.08-2.18-0.89-2.71c0.13-0.36,0.53-0.32,1.4-0.45c0.16-0.45,0.29-1.05,0.71-2.23c0.11-0.29,0.16-0.44,0.26-0.74
					c-0.83-0.24-1.24-0.35-2.06-0.59C68.66,22.4,68.59,22.22,68.46,21.85z"/>
				<path class="st20" d="M88.46,28.38c-1.43,4-2.15,6-3.58,10c-0.12-0.03-0.18-0.05-0.29-0.08c-0.18-0.23-0.28-0.35-0.46-0.58
					c-0.27-0.27-0.4-0.41-0.67-0.68c0,0,0.57-1.22,1.06-2.6c-0.53,0.39-1.49,0.82-2.88,0.42c-1.1-0.31-1.84-1.09-2.35-2.09
					c-0.43-0.84-0.72-1.94-0.4-2.83c0.53-1.49,2.23-2.06,3.89-1.59c0.43,0.12,0.9,0.33,1.22,0.58c0.14,0.61,0.21,0.91,0.35,1.51
					c-0.07,0.04-0.1,0.06-0.17,0.1c-0.38-0.26-0.84-0.49-1.28-0.61c-1.22-0.35-2.43-0.05-2.83,1.06c-0.31,0.86,0.07,2.04,1.57,2.47
					c1.53,0.44,3.2-0.22,3.79-1.86c0.53-1.48,0.79-2.22,1.32-3.7c-2.92-0.83-4.38-1.25-7.3-2.08c-0.13-0.36-0.2-0.54-0.33-0.9
					c-0.1-0.2-0.15-0.3-0.25-0.51c0.03-0.08,0.04-0.11,0.07-0.19c4.67,1.34,7.01,2,11.68,3.34c0.13,0.36,0.2,0.54,0.33,0.9
					c0.1,0.2,0.15,0.3,0.25,0.51c-0.03,0.08-0.04,0.11-0.07,0.19C90.06,28.84,89.53,28.68,88.46,28.38z"/>
				<path class="st20" d="M89.82,27.96c-0.1-0.2-0.15-0.3-0.25-0.51c0.03-0.08,0.04-0.11,0.07-0.19c4.6,1.32,6.9,1.97,11.5,3.29
					c0.14,0.36,0.21,0.55,0.35,0.91c0.1,0.2,0.15,0.3,0.25,0.51c-0.03,0.08-0.04,0.11-0.07,0.19c-1.07-0.31-1.6-0.46-2.67-0.76
					c-1.43,4-2.15,6-3.58,9.99c-0.12-0.03-0.18-0.05-0.29-0.08c-0.19-0.23-0.28-0.35-0.46-0.59c-0.27-0.27-0.4-0.41-0.67-0.68
					c0,0,0.59-1.53,1.93-5.28c-0.83-0.24-1.25-0.36-2.08-0.6c-1.69-0.48-2.73,0.07-3.12,1.15c-0.4,1.11-0.08,2.66,0.64,4.22
					c-0.47,0.06-0.7,0.09-1.16,0.16c-0.61-1.44-1.45-3.71-0.83-5.44c0.56-1.56,2.21-2.24,4.26-1.65c1.1,0.31,1.65,0.47,2.75,0.79
					c0.36-0.99,0.53-1.49,0.89-2.48c-2.85-0.81-4.27-1.22-7.12-2.03C90.02,28.5,89.95,28.32,89.82,27.96z"/>
			</g>
		</g>
	</g>
</g>
<g>
	<path class="st20" d="M-159.97,130c-0.42,0-0.84-0.05-1.23-0.14c-0.95-0.22-1.97-0.46-3.03-0.79c-3.73-1.16-7.46-2.34-11.18-3.51
		l-47.64-14.98c-4.21-1.33-7.67-4.4-10.31-9.14c-2.61-4.7-4.22-10.3-4.77-16.65c-0.47-5.31-0.26-10.04,0.62-14.47
		c0.9-4.51,2.32-8.11,4.34-11.01c1.52-2.17,3.03-4.36,4.54-6.55c3.42-4.95,6.95-10.06,10.56-14.96
		c8.54-11.59,17.87-21.93,27.71-30.74c2.06-1.85,4.86-4.15,8.2-5.61c3.75-1.64,7.78-1.9,11.96-0.79c4.69,1.25,9.37,2.51,14.05,3.78
		c5.69,1.54,11.37,3.08,17.06,4.62c5.88,1.6,11.77,3.2,17.65,4.81c0.82,0.22,1.64,0.46,2.45,0.69c0.75,0.21,1.49,0.43,2.24,0.63
		c2.45,0.67,4.08,2.75,4.21,5.34h0.01l0.05,4.76c0,0.33,0,0.66,0.01,1c0.01,0.92,0.02,1.87-0.04,2.87c-0.05,0.84-0.27,2.45-1.2,3.89
		c-0.74,1.14-1.64,2.47-2.73,3.7c-0.25,0.29-0.57,1.01-0.65,2.81c-0.09,2,0.33,3.82,1.33,5.74c0.62,1.19,1.34,2.3,2.2,3.38
		c2.15,0.78,3.6,2.8,3.63,5.33l0.01,0.47c0.02,1.63,0.05,3.32,0.02,5.01c-0.03,1.64-0.74,2.98-1.15,3.62
		c-0.79,1.22-1.6,2.39-2.38,3.52L-122,79c-10.81,15.56-21.63,31.12-32.44,46.69c-0.06,0.1-0.22,0.49-0.31,0.71
		C-155.84,128.96-157.98,130-159.97,130z M-175.17,9.52c-1.05,0-2.04,0.21-3.02,0.64c-2.07,0.9-4.08,2.58-5.6,3.94
		c-9.35,8.37-18.23,18.22-26.38,29.29c-3.52,4.77-7.01,9.83-10.39,14.72c-1.52,2.2-3.04,4.4-4.57,6.59
		c-1.26,1.8-2.18,4.24-2.82,7.45c-0.71,3.55-0.86,7.42-0.48,11.83c0.44,5.03,1.66,9.37,3.63,12.92c1.4,2.52,3,4.08,4.75,4.63
		l47.63,14.98c3.45,1.09,6.9,2.17,10.35,3.25c10.67-15.38,21.35-30.74,32.04-46.11l8.58-12.35c0.65-0.93,1.27-1.82,1.86-2.73
		c0-0.72,0-1.45-0.01-2.19c-0.14-0.13-0.27-0.26-0.38-0.38c-1.8-2-3.25-4.09-4.44-6.38c-1.76-3.39-2.53-6.81-2.37-10.46
		c0.1-2.36,0.53-5.82,3.02-8.63c0.55-0.62,1.1-1.41,1.57-2.11l-0.04-4.86c-0.6-0.17-1.21-0.34-1.81-0.51
		c-5.88-1.61-11.76-3.21-17.64-4.81c-5.68-1.54-11.36-3.08-17.05-4.62c-4.67-1.26-9.34-2.52-14.02-3.77
		C-173.6,9.63-174.4,9.52-175.17,9.52z M-115.49,48.34c0,0,0.01,0,0.02,0C-115.48,48.34-115.48,48.34-115.49,48.34z"/>
	<g>
		<g id="pwZKoX.tif_00000154414125208772972650000004733609490228026754_">
			<g>
				<path class="st20" d="M-117.33,25.3c-0.02,0-0.04,0-0.05,0c0-1.46,0-2.93,0-4.39c0-0.65-0.23-0.99-0.67-1.12
					c-1.56-0.43-3.12-0.89-4.69-1.32c-5.88-1.61-11.76-3.21-17.64-4.81c-5.68-1.54-11.37-3.09-17.05-4.62
					c-4.68-1.26-9.36-2.53-14.03-3.77c-2.93-0.78-5.84-0.7-8.7,0.54c-2.47,1.08-4.72,2.83-6.9,4.78
					c-9.72,8.7-18.73,18.74-27.05,30.01c-5.13,6.96-10.03,14.26-15.03,21.4c-1.81,2.59-2.89,5.76-3.58,9.23
					c-0.86,4.32-0.94,8.72-0.55,13.15c0.48,5.46,1.8,10.45,4.2,14.78c1.95,3.51,4.43,5.91,7.53,6.89c2.57,0.81,5.15,1.63,7.72,2.44
					c6.01,1.89,12.02,3.77,18.03,5.66c5.79,1.82,11.59,3.65,17.38,5.47c5.22,1.64,10.44,3.29,15.67,4.92
					c0.87,0.27,1.76,0.48,2.64,0.68c0.37,0.08,0.66-0.16,0.86-0.65c0.23-0.55,0.47-1.11,0.79-1.56
					c13.67-19.69,27.35-39.37,41.02-59.05c0.77-1.11,1.55-2.23,2.29-3.39c0.2-0.31,0.4-0.76,0.4-1.16c0.03-1.78,0-3.56-0.03-5.34
					c-0.01-0.72-0.31-0.99-0.8-0.99c-0.26,0-0.57-0.04-0.76-0.25c-1.41-1.57-2.68-3.33-3.75-5.38c-1.25-2.41-1.99-5.05-1.85-8.1
					c0.1-2.24,0.52-4.23,1.83-5.72c0.83-0.94,1.58-2.03,2.3-3.14c0.26-0.4,0.42-1.04,0.45-1.59
					C-117.28,27.72-117.33,26.51-117.33,25.3z"/>
				<path class="st12" d="M-117.33,25.3c0,1.2,0.05,2.41-0.02,3.61c-0.03,0.55-0.19,1.2-0.45,1.59c-0.72,1.11-1.47,2.2-2.3,3.14
					c-1.32,1.49-1.74,3.48-1.83,5.72c-0.13,3.05,0.6,5.69,1.85,8.1c1.07,2.06,2.34,3.82,3.75,5.38c0.19,0.21,0.5,0.24,0.76,0.25
					c0.49,0.01,0.79,0.28,0.8,0.99c0.03,1.78,0.06,3.56,0.03,5.34c-0.01,0.39-0.2,0.85-0.4,1.16c-0.74,1.16-1.52,2.27-2.29,3.39
					c-13.68,19.68-27.35,39.36-41.02,59.05c-0.31,0.45-0.55,1.01-0.79,1.56c-0.21,0.49-0.49,0.73-0.86,0.65
					c-0.88-0.2-1.77-0.41-2.64-0.68c-5.22-1.63-10.44-3.28-15.67-4.92c-5.79-1.82-11.59-3.65-17.38-5.47
					c-6.01-1.89-12.02-3.77-18.03-5.66c-2.57-0.81-5.15-1.62-7.72-2.44c-3.1-0.98-5.58-3.38-7.53-6.89
					c-2.41-4.33-3.72-9.32-4.2-14.78c-0.39-4.43-0.31-8.83,0.55-13.15c0.69-3.47,1.77-6.64,3.58-9.23c5-7.15,9.9-14.45,15.03-21.4
					c8.31-11.27,17.32-21.31,27.05-30.01c2.18-1.95,4.43-3.7,6.9-4.78c2.86-1.25,5.77-1.32,8.7-0.54c4.68,1.25,9.36,2.51,14.03,3.77
					c5.68,1.54,11.37,3.08,17.05,4.62c5.88,1.6,11.76,3.2,17.64,4.81c1.56,0.43,3.12,0.89,4.69,1.32c0.45,0.12,0.67,0.47,0.67,1.12
					c0,1.46,0,2.93,0,4.39C-117.36,25.3-117.34,25.3-117.33,25.3z M-224.69,58.21c0.04,0.09,0.08,0.19,0.12,0.28
					c2.59-0.27,5.13,0.23,7.64,1.01c6.28,1.94,12.55,3.92,18.83,5.88c8.03,2.51,16.06,5.03,24.09,7.54
					c4.65,1.46,9.3,2.91,13.94,4.41c0.44,0.14,0.68-0.07,0.96-0.46c6.44-9.01,12.9-18.01,19.33-27.04
					c6.47-9.08,12.93-18.19,19.39-27.29c0.19-0.26,0.41-0.47,0.62-0.71c-0.03-0.09-0.06-0.18-0.08-0.28
					c-0.29-0.11-0.58-0.24-0.87-0.32c-5.74-1.55-11.48-3.09-17.22-4.64c-4.32-1.17-8.63-2.37-12.95-3.54
					c-6.49-1.76-12.98-3.56-19.49-5.25c-1.72-0.45-3.49-0.79-5.23-0.78c-3.18,0-6.12,1.47-8.85,3.76c-1.56,1.31-3.08,2.73-4.6,4.14
					c-5.66,5.26-11.09,10.96-16.22,17.23c-6.52,7.97-12.8,16.32-18.72,25.2C-224.21,57.68-224.46,57.93-224.69,58.21z
					 M-162.43,84.23c-19.08-6.05-38.02-12.05-57.1-18.1c0.22,1.31-0.25,1.8-0.82,2.23c-0.42,0.31-0.82,0.68-1.22,1.05
					c-1.28,1.19-2.53,2.43-3.43,4.23c-1.39,2.8-1.69,6.02-1.63,9.34c0.06,3.32,0.72,6.5,1.28,9.69c0.06,0.33,0.24,0.65,0.41,0.9
					c1.07,1.52,2.24,2.92,3.66,3.68c1.52,0.81,3.08,1.55,4.66,2.01c6.67,1.95,13.36,3.79,20.04,5.68
					c5.23,1.47,10.46,2.95,15.68,4.42c5.33,1.51,10.67,3.02,16,4.52c0.29,0.08,0.58,0.12,0.99,0.21c-0.18-0.35-0.27-0.52-0.35-0.68
					c-1.32-2.55-2.72-5.01-3.92-7.66c-0.73-1.62-1.27-3.48-1.7-5.32c-0.63-2.7-0.07-5.21,0.99-7.52c1.4-3.06,3.37-5.29,5.37-7.47
					C-163.17,85.07-162.83,84.68-162.43,84.23z M-118.86,23.45c-0.47,0.62-0.85,1.1-1.21,1.6c-5.41,7.57-10.81,15.14-16.21,22.72
					c-7.27,10.2-14.55,20.39-21.79,30.64c-0.77,1.09-1.51,1.32-2.51,1c-5.06-1.62-10.12-3.2-15.18-4.78
					c-6.65-2.09-13.31-4.18-19.96-6.26c-7.03-2.2-14.06-4.41-21.09-6.57c-2.33-0.71-4.67-1.35-7.08-1.16
					c-1.57,0.12-2.91,0.92-4.03,2.51c-1.19,1.68-2.1,3.63-2.71,5.85c-1.3,4.65-1.57,9.48-1.18,14.42c0.38,4.8,1.3,9.33,3.26,13.33
					c1.82,3.73,4.19,6.31,7.38,7.2c1.53,0.43,3.04,0.93,4.56,1.41c7.33,2.3,14.66,4.6,21.99,6.9c10.01,3.14,20.03,6.29,30.04,9.43
					c1.21,0.38,2.42,0.76,3.63,1.14c0.04-0.13,0.09-0.21,0.08-0.27c-0.16-1.68-0.31-3.37-0.5-5.04c-0.02-0.19-0.26-0.42-0.42-0.48
					c-0.6-0.21-1.22-0.34-1.83-0.52c-5.95-1.68-11.89-3.35-17.84-5.03c-7.44-2.1-14.87-4.2-22.31-6.29c-3.7-1.04-7.4-2.07-11.1-3.13
					c-2.26-0.65-4.52-1.21-6.66-2.6c-6.95-4.53-10.42-16.35-7.67-26.33c1.59-5.79,5.11-9.3,9.31-8.98c1.72,0.13,3.44,0.7,5.14,1.23
					c6.62,2.06,13.23,4.18,19.84,6.28c7.92,2.51,15.84,5.02,23.75,7.54c4.09,1.3,8.18,2.62,12.28,3.89c0.24,0.07,0.6-0.15,0.79-0.41
					c2.56-3.49,5.09-7.02,7.65-10.51c6.45-8.82,12.91-17.62,19.36-26.43c3.92-5.36,7.84-10.72,11.75-16.09
					c0.19-0.26,0.45-0.61,0.46-0.92C-118.84,27.03-118.86,25.34-118.86,23.45z M-123.51,38.39c-0.14,0.13-0.24,0.2-0.31,0.3
					c-5.19,7.13-10.36,14.29-15.57,21.4c-6.05,8.27-12.12,16.51-18.18,24.77c-0.33,0.45-0.68,0.67-1.14,0.5
					c-0.46-0.17-0.93-0.32-1.4-0.37c-0.26-0.03-0.58,0.05-0.79,0.25c-0.71,0.69-1.38,1.46-2.07,2.21c-1.6,1.75-3.15,3.59-4.38,5.92
					c-1.26,2.41-1.61,5.04-0.8,7.83c0.47,1.61,1,3.22,1.7,4.63c1.32,2.67,2.78,5.19,4.17,7.78c0.24,0.45,0.48,0.91,0.81,1.54
					c14.82-20.18,29.6-40.3,44.39-60.44c-1.62-1.89-3.08-3.83-4.25-6.17c-1.42-2.85-2.43-5.91-2.15-9.55
					C-123.44,38.82-123.48,38.64-123.51,38.39z M-159.42,121.3c0.27-0.36,0.45-0.59,0.63-0.84c3.56-5.1,7.13-10.19,10.67-15.31
					c10.39-15,20.76-30.03,31.18-45.01c0.72-1.03,0.74-2.07,0.67-3.49c-0.44,0.55-0.8,0.98-1.14,1.44
					c-2.78,3.8-5.54,7.63-8.33,11.42c-4.42,6.01-8.87,11.98-13.29,17.99c-6.68,9.08-13.34,18.19-20.04,27.24
					c-0.66,0.89-1.01,1.68-0.73,3.01C-159.59,118.85-159.55,120-159.42,121.3z M-228.15,84.87c-0.14-3.77-0.01-7.48,1.23-10.91
					c1.27-3.51,3.57-5.42,5.8-7.47c-0.15-0.07-0.29-0.1-0.42-0.07c-2.19,0.47-3.99,1.92-5.22,4.58c-1.16,2.52-1.78,5.32-1.88,8.34
					C-228.69,81.21-228.6,83.07-228.15,84.87z"/>
				<path class="st23" d="M-224.69,58.21c0.23-0.28,0.49-0.53,0.7-0.84c5.92-8.89,12.19-17.24,18.72-25.2
					c5.13-6.27,10.56-11.97,16.22-17.23c1.52-1.41,3.04-2.83,4.6-4.14c2.73-2.29,5.67-3.76,8.85-3.76c1.74,0,3.51,0.34,5.23,0.78
					c6.5,1.69,12.99,3.48,19.49,5.25c4.32,1.17,8.63,2.37,12.95,3.54c5.74,1.55,11.48,3.09,17.22,4.64
					c0.29,0.08,0.58,0.21,0.87,0.32c0.03,0.09,0.06,0.18,0.08,0.28c-0.21,0.23-0.43,0.44-0.62,0.71
					c-6.46,9.09-12.92,18.21-19.39,27.29c-6.43,9.03-12.89,18.02-19.33,27.04c-0.28,0.39-0.52,0.6-0.96,0.46
					c-4.64-1.49-9.29-2.95-13.94-4.41c-8.03-2.52-16.06-5.03-24.09-7.54c-6.28-1.96-12.55-3.94-18.83-5.88
					c-2.51-0.78-5.05-1.28-7.64-1.01C-224.61,58.39-224.65,58.3-224.69,58.21z"/>
				<path class="st19" d="M-162.43,84.23c-0.41,0.46-0.74,0.85-1.09,1.22c-2,2.18-3.97,4.41-5.37,7.47
					c-1.05,2.31-1.61,4.82-0.99,7.52c0.43,1.84,0.97,3.7,1.7,5.32c1.2,2.65,2.6,5.12,3.92,7.66c0.08,0.16,0.17,0.33,0.35,0.68
					c-0.42-0.09-0.71-0.13-0.99-0.21c-5.33-1.51-10.67-3.02-16-4.52c-5.23-1.48-10.46-2.95-15.68-4.42
					c-6.68-1.88-13.37-3.72-20.04-5.68c-1.58-0.46-3.14-1.2-4.66-2.01c-1.42-0.76-2.59-2.16-3.66-3.68
					c-0.18-0.25-0.36-0.57-0.41-0.9c-0.56-3.19-1.22-6.37-1.28-9.69c-0.06-3.32,0.24-6.54,1.63-9.34c0.9-1.81,2.16-3.04,3.43-4.23
					c0.4-0.37,0.8-0.74,1.22-1.05c0.58-0.43,1.04-0.92,0.82-2.23C-200.45,72.17-181.5,78.18-162.43,84.23z M-169.12,108.61
					c0.42-0.03,0.75-0.21,0.85-0.83c0.11-0.63-0.17-0.98-0.53-1.2c-0.17-0.1-0.35-0.17-0.52-0.22c-3.93-1.15-7.85-2.31-11.79-3.44
					c-6.14-1.77-12.28-3.51-18.41-5.28c-6.96-2-13.92-4.01-20.89-6c-0.63-0.18-1.26-0.34-1.9-0.37c-0.22-0.01-0.54,0.35-0.64,0.65
					c-0.08,0.28,0,0.82,0.15,1.05c0.18,0.27,0.51,0.38,0.79,0.46c3.89,1.13,7.79,2.24,11.68,3.36c7.99,2.3,15.98,4.59,23.96,6.89
					c4.4,1.26,8.8,2.53,13.19,3.79C-171.81,107.86-170.47,108.23-169.12,108.61z M-172.06,101.01c0.42-0.08,0.79-0.2,0.89-0.88
					c0.09-0.65-0.21-0.95-0.58-1.15c-0.14-0.07-0.28-0.13-0.42-0.18c-2.69-0.81-5.37-1.63-8.06-2.43c-6.07-1.8-12.15-3.6-18.23-5.39
					c-7.42-2.19-14.85-4.36-22.27-6.54c-1.08-0.32-2.15-0.65-3.23-0.94c-0.55-0.15-0.93,0.17-1.05,0.79
					c-0.1,0.58,0.19,1.13,0.71,1.35c0.11,0.04,0.21,0.09,0.32,0.12c1.58,0.46,3.16,0.92,4.74,1.38c5.67,1.67,11.33,3.34,17,5.01
					c4.79,1.41,9.57,2.83,14.36,4.24c4.02,1.18,8.03,2.37,12.05,3.54C-174.58,100.3-173.32,100.65-172.06,101.01z M-172.14,93.23
					c0.45,0.02,0.76-0.25,0.88-0.86c0.11-0.6-0.17-0.93-0.5-1.16c-0.18-0.12-0.38-0.2-0.57-0.26c-3.18-0.92-6.35-1.83-9.53-2.74
					c-6.28-1.8-12.56-3.6-18.85-5.4c-6.95-1.98-13.9-3.95-20.84-5.92c-0.77-0.22-1.54-0.45-2.32-0.64
					c-0.67-0.17-1.04,0.09-1.14,0.77c-0.1,0.67,0.19,1.14,0.83,1.36c0.18,0.06,0.36,0.12,0.54,0.17c6.61,1.89,13.22,3.77,19.83,5.65
					c9.3,2.65,18.6,5.31,27.91,7.96C-174.66,92.53-173.4,92.88-172.14,93.23z M-168.14,86.51c0.17-0.16,0.52-0.31,0.66-0.64
					c0.29-0.64,0.08-1.26-0.51-1.48c-1.03-0.38-2.07-0.69-3.11-0.98c-6.16-1.75-12.33-3.48-18.49-5.23
					c-4.96-1.4-9.91-2.81-14.87-4.23c-4.31-1.23-8.62-2.46-12.93-3.69c-0.9-0.25-1.8-0.49-2.7-0.68c-0.41-0.09-0.79,0.1-0.88,0.77
					c-0.09,0.69,0.2,1.07,0.62,1.29c0.1,0.05,0.21,0.09,0.32,0.13c0.75,0.22,1.51,0.44,2.26,0.66c6.45,1.83,12.9,3.66,19.35,5.49
					c4.44,1.26,8.87,2.52,13.31,3.78c4.44,1.26,8.87,2.52,13.31,3.78C-170.64,85.81-169.47,86.14-168.14,86.51z"/>
				<path class="st14" d="M-118.86,23.45c0,1.89,0.02,3.58-0.02,5.27c-0.01,0.32-0.27,0.66-0.46,0.92
					c-3.91,5.37-7.83,10.73-11.75,16.09c-6.45,8.81-12.91,17.61-19.36,26.43c-2.56,3.49-5.09,7.02-7.65,10.51
					c-0.19,0.26-0.56,0.49-0.79,0.41c-4.1-1.27-8.19-2.59-12.28-3.89c-7.92-2.52-15.83-5.02-23.75-7.54
					c-6.61-2.1-13.22-4.22-19.84-6.28c-1.7-0.53-3.41-1.1-5.14-1.23c-4.19-0.32-7.71,3.19-9.31,8.98
					c-2.74,9.98,0.72,21.8,7.67,26.33c2.13,1.39,4.4,1.95,6.66,2.6c3.7,1.07,7.4,2.09,11.1,3.13c7.44,2.1,14.87,4.2,22.31,6.29
					c5.95,1.68,11.89,3.35,17.84,5.03c0.61,0.17,1.23,0.31,1.83,0.52c0.16,0.06,0.4,0.29,0.42,0.48c0.19,1.68,0.34,3.36,0.5,5.04
					c0.01,0.06-0.04,0.14-0.08,0.27c-1.21-0.38-2.42-0.76-3.63-1.14c-10.01-3.14-20.03-6.29-30.04-9.43
					c-7.33-2.3-14.66-4.6-21.99-6.9c-1.52-0.48-3.04-0.98-4.56-1.41c-3.19-0.89-5.56-3.47-7.38-7.2c-1.96-4-2.88-8.53-3.26-13.33
					c-0.39-4.94-0.12-9.77,1.18-14.42c0.62-2.21,1.52-4.17,2.71-5.85c1.12-1.58,2.47-2.38,4.03-2.51c2.41-0.19,4.75,0.45,7.08,1.16
					c7.04,2.16,14.06,4.37,21.09,6.57c6.65,2.08,13.31,4.17,19.96,6.26c5.06,1.59,10.13,3.16,15.18,4.78c1,0.32,1.73,0.09,2.51-1
					c7.24-10.25,14.52-20.44,21.79-30.64c5.4-7.58,10.81-15.15,16.21-22.72C-119.71,24.56-119.33,24.08-118.86,23.45z"/>
				<path class="st19" d="M-123.51,38.39c0.02,0.26,0.06,0.43,0.05,0.59c-0.29,3.64,0.72,6.7,2.15,9.55
					c1.17,2.34,2.63,4.28,4.25,6.17c-14.79,20.14-29.57,40.26-44.39,60.44c-0.33-0.63-0.57-1.09-0.81-1.54
					c-1.4-2.59-2.86-5.11-4.17-7.78c-0.7-1.41-1.23-3.03-1.7-4.63c-0.81-2.79-0.46-5.43,0.8-7.83c1.22-2.33,2.77-4.16,4.38-5.92
					c0.68-0.75,1.36-1.52,2.07-2.21c0.21-0.2,0.53-0.28,0.79-0.25c0.47,0.05,0.94,0.2,1.4,0.37c0.47,0.17,0.81-0.05,1.14-0.5
					c6.06-8.26,12.13-16.49,18.18-24.77c5.2-7.11,10.38-14.27,15.57-21.4C-123.74,38.59-123.65,38.52-123.51,38.39z M-162.31,112.25
					c0.13-0.11,0.4-0.28,0.6-0.54c1.33-1.72,2.64-3.47,3.97-5.21c4.62-6.05,9.23-12.11,13.85-18.16
					c7.28-9.54,14.56-19.07,21.84-28.6c0.88-1.15,1.74-2.32,2.6-3.5c0.41-0.56,0.45-1.15,0.16-1.59c-0.28-0.43-0.72-0.41-1.14,0.06
					c-0.16,0.18-0.3,0.38-0.45,0.57c-5.83,7.65-11.66,15.3-17.49,22.95c-4.61,6.06-9.22,12.13-13.83,18.19
					c-3.32,4.36-6.65,8.7-9.97,13.06c-0.29,0.39-0.59,0.8-0.81,1.27C-163.33,111.51-163.06,112.22-162.31,112.25z M-165.87,100.46
					c0.29-0.26,0.56-0.43,0.77-0.7c0.85-1.08,1.67-2.2,2.51-3.3c6.07-7.94,12.14-15.87,18.21-23.81
					c6.55-8.58,13.1-17.16,19.65-25.74c0.23-0.3,0.54-0.57,0.64-0.94c0.11-0.4,0.1-0.99-0.04-1.34c-0.09-0.21-0.56-0.23-0.82-0.14
					c-0.24,0.09-0.44,0.44-0.64,0.71c-3.34,4.37-6.66,8.75-10.01,13.11c-4.64,6.06-9.29,12.09-13.93,18.15
					c-5.34,6.98-10.67,13.98-16,20.97c-0.3,0.39-0.63,0.75-0.85,1.22c-0.14,0.3-0.18,0.81-0.1,1.14
					C-166.42,100.07-166.11,100.22-165.87,100.46z M-164.44,104.87c0,1.01,0.48,1.47,0.96,1.12c0.33-0.25,0.64-0.62,0.91-0.99
					c2.81-3.72,5.6-7.47,8.4-11.19c5.42-7.2,10.85-14.4,16.27-21.59c4.55-6.04,9.1-12.08,13.65-18.12c0.56-0.75,1.12-1.51,1.67-2.28
					c0.29-0.4,0.34-0.86,0.07-1.33c-0.27-0.48-0.61-0.55-0.97-0.21c-0.18,0.17-0.36,0.36-0.52,0.58c-2.9,3.85-5.79,7.71-8.69,11.57
					c-4.97,6.62-9.95,13.24-14.93,19.85c-4.02,5.35-8.05,10.7-12.08,16.04c-1.41,1.87-2.84,3.71-4.25,5.58
					C-164.17,104.22-164.33,104.66-164.44,104.87z"/>
				<path class="st20" d="M-159.42,121.3c-0.13-1.3-0.17-2.46-0.39-3.54c-0.27-1.33,0.07-2.12,0.73-3.01
					c6.7-9.05,13.36-18.16,20.04-27.24c4.42-6.01,8.87-11.98,13.29-17.99c2.79-3.79,5.55-7.62,8.33-11.42
					c0.34-0.46,0.7-0.89,1.14-1.44c0.07,1.42,0.05,2.45-0.67,3.49c-10.41,14.97-20.79,30-31.18,45.01
					c-3.55,5.12-7.11,10.21-10.67,15.31C-158.97,120.71-159.15,120.94-159.42,121.3z"/>
				<path class="st20" d="M-228.15,84.87c-0.46-1.8-0.55-3.66-0.49-5.54c0.1-3.01,0.71-5.82,1.88-8.34
					c1.23-2.66,3.03-4.11,5.22-4.58c0.13-0.03,0.27,0,0.42,0.07c-2.23,2.06-4.54,3.97-5.8,7.47
					C-228.16,77.39-228.29,81.1-228.15,84.87z"/>
				<path class="st20" d="M-169.12,108.61c-1.35-0.38-2.69-0.75-4.04-1.14c-4.4-1.26-8.8-2.53-13.19-3.79
					c-7.99-2.3-15.98-4.59-23.96-6.89c-3.9-1.12-7.79-2.23-11.68-3.36c-0.28-0.08-0.61-0.19-0.79-0.46
					c-0.15-0.23-0.24-0.77-0.15-1.05c0.09-0.3,0.42-0.66,0.64-0.65c0.64,0.03,1.27,0.19,1.9,0.37c6.96,1.99,13.92,4,20.89,6
					c6.14,1.76,12.28,3.51,18.41,5.28c3.93,1.13,7.86,2.29,11.79,3.44c0.18,0.05,0.36,0.12,0.52,0.22c0.37,0.22,0.64,0.57,0.53,1.2
					C-168.37,108.39-168.7,108.57-169.12,108.61z"/>
				<path class="st20" d="M-172.06,101.01c-1.26-0.36-2.51-0.71-3.77-1.08c-4.02-1.18-8.03-2.36-12.05-3.54
					c-4.79-1.41-9.57-2.83-14.36-4.24c-5.67-1.67-11.33-3.34-17-5.01c-1.58-0.46-3.16-0.92-4.74-1.38
					c-0.11-0.03-0.21-0.07-0.32-0.12c-0.53-0.22-0.81-0.77-0.71-1.35c0.11-0.62,0.5-0.94,1.05-0.79c1.08,0.3,2.15,0.63,3.23,0.94
					c7.42,2.18,14.85,4.36,22.27,6.54c6.08,1.79,12.15,3.59,18.23,5.39c2.69,0.8,5.37,1.62,8.06,2.43c0.14,0.04,0.28,0.1,0.42,0.18
					c0.37,0.2,0.66,0.5,0.58,1.15C-171.27,100.81-171.64,100.93-172.06,101.01z"/>
				<path class="st20" d="M-172.14,93.23c-1.26-0.35-2.52-0.7-3.77-1.06c-9.3-2.65-18.6-5.31-27.91-7.96
					c-6.61-1.88-13.22-3.77-19.83-5.65c-0.18-0.05-0.36-0.11-0.54-0.17c-0.65-0.22-0.93-0.69-0.83-1.36
					c0.1-0.68,0.47-0.94,1.14-0.77c0.77,0.2,1.55,0.42,2.32,0.64c6.95,1.97,13.9,3.94,20.84,5.92c6.28,1.79,12.56,3.6,18.85,5.4
					c3.18,0.91,6.35,1.82,9.53,2.74c0.2,0.06,0.39,0.14,0.57,0.26c0.33,0.23,0.61,0.55,0.5,1.16
					C-171.38,92.98-171.69,93.25-172.14,93.23z"/>
				<path class="st20" d="M-168.14,86.51c-1.33-0.37-2.5-0.7-3.66-1.03c-4.44-1.26-8.87-2.52-13.31-3.78
					c-4.44-1.26-8.87-2.52-13.31-3.78c-6.45-1.83-12.9-3.66-19.35-5.49c-0.75-0.21-1.51-0.44-2.26-0.66
					c-0.11-0.03-0.21-0.07-0.32-0.13c-0.42-0.22-0.71-0.6-0.62-1.29c0.09-0.67,0.47-0.86,0.88-0.77c0.9,0.19,1.81,0.43,2.7,0.68
					c4.31,1.22,8.62,2.46,12.93,3.69c4.96,1.41,9.91,2.82,14.87,4.23c6.16,1.75,12.33,3.48,18.49,5.23c1.04,0.3,2.08,0.6,3.11,0.98
					c0.58,0.21,0.79,0.83,0.51,1.48C-167.63,86.2-167.97,86.35-168.14,86.51z"/>
				<path class="st20" d="M-162.31,112.25c-0.75-0.03-1.02-0.74-0.67-1.5c0.22-0.47,0.52-0.88,0.81-1.27
					c3.32-4.36,6.65-8.7,9.97-13.06c4.61-6.06,9.22-12.13,13.83-18.19c5.83-7.65,11.66-15.3,17.49-22.95
					c0.15-0.19,0.29-0.39,0.45-0.57c0.42-0.47,0.85-0.49,1.14-0.06c0.29,0.43,0.25,1.03-0.16,1.59c-0.86,1.18-1.72,2.35-2.6,3.5
					c-7.28,9.54-14.56,19.07-21.84,28.6c-4.62,6.05-9.23,12.11-13.85,18.16c-1.32,1.73-2.64,3.48-3.97,5.21
					C-161.92,111.97-162.19,112.14-162.31,112.25z"/>
				<path class="st20" d="M-165.87,100.46c-0.24-0.24-0.55-0.39-0.61-0.66c-0.08-0.34-0.04-0.85,0.1-1.14
					c0.22-0.47,0.55-0.83,0.85-1.22c5.33-6.99,10.66-13.99,16-20.97c4.64-6.06,9.29-12.09,13.93-18.15
					c3.34-4.36,6.67-8.74,10.01-13.11c0.2-0.26,0.4-0.61,0.64-0.71c0.26-0.1,0.72-0.08,0.82,0.14c0.15,0.34,0.15,0.94,0.04,1.34
					c-0.1,0.38-0.41,0.64-0.64,0.94c-6.55,8.58-13.1,17.16-19.65,25.74c-6.07,7.94-12.14,15.87-18.21,23.81
					c-0.84,1.1-1.66,2.21-2.51,3.3C-165.31,100.03-165.58,100.2-165.87,100.46z"/>
				<path class="st20" d="M-164.44,104.87c0.11-0.21,0.27-0.65,0.51-0.97c1.41-1.88,2.84-3.72,4.25-5.58
					c4.03-5.34,8.05-10.69,12.08-16.04c4.98-6.61,9.95-13.23,14.93-19.85c2.9-3.85,5.79-7.71,8.69-11.57
					c0.16-0.21,0.34-0.4,0.52-0.58c0.36-0.35,0.7-0.27,0.97,0.21c0.27,0.47,0.22,0.92-0.07,1.33c-0.55,0.77-1.11,1.53-1.67,2.28
					c-4.55,6.04-9.1,12.08-13.65,18.12c-5.42,7.2-10.85,14.39-16.27,21.59c-2.8,3.73-5.6,7.47-8.4,11.19
					c-0.28,0.37-0.58,0.74-0.91,0.99C-163.95,106.34-164.43,105.88-164.44,104.87z"/>
			</g>
		</g>
		<g>
			<g>
				<path class="st20" d="M-180.45,23.9c0.52-1.46,0.79-2.2,1.31-3.66c-0.75-0.21-1.12-0.32-1.87-0.53c-0.13-0.36-0.2-0.54-0.33-0.9
					c-0.1-0.2-0.15-0.3-0.25-0.51c0.03-0.08,0.04-0.11,0.07-0.19c2.51,0.72,3.76,1.08,6.27,1.79c0.13,0.36,0.2,0.54,0.33,0.9
					c0.1,0.2,0.15,0.3,0.25,0.51c-0.03,0.08-0.04,0.11-0.07,0.19c-1.07-0.31-1.61-0.46-2.68-0.76c-1.43,4-2.15,6-3.58,10
					c-0.12-0.03-0.18-0.05-0.3-0.08c-0.18-0.23-0.28-0.35-0.46-0.58c-0.27-0.27-0.41-0.41-0.69-0.69c0,0,0.66-1.55,1.59-4.15
					c-1.58-0.45-2.37-0.68-3.95-1.13c-0.24,0.66-0.35,0.99-0.59,1.64c-0.37-0.11-0.55-0.16-0.92-0.26c-0.7-1.09-0.95-2.14-0.77-2.62
					c0.11-0.31,0.33-0.43,1.16-0.52c0,0,0.17-0.76,0.66-2.15c0.18-0.5,0.27-0.75,0.45-1.25c0.07-0.21,0-0.36-0.38-0.47
					c-0.57-0.16-1.1-0.09-1.62,0.16c-0.19-0.7-0.29-1.05-0.48-1.76c0.58-0.16,1.14-0.16,1.81,0.03c0.61,0.17,1.07,0.54,1.5,1.13
					c0.52,0.7,0.85,1.38,0.57,2.16c-0.37,1.04-0.56,1.56-0.93,2.6C-182.78,23.24-182,23.46-180.45,23.9z"/>
				<path class="st20" d="M-172,22.28c-1.43,4-2.15,6-3.58,10c-0.12-0.03-0.18-0.05-0.29-0.08c-0.18-0.23-0.28-0.35-0.46-0.59
					c-0.27-0.27-0.41-0.41-0.69-0.69c1.31-3.66,1.96-5.48,3.27-9.14c-0.79-0.23-1.19-0.34-1.99-0.57c-0.13-0.36-0.2-0.54-0.33-0.9
					c-0.1-0.2-0.15-0.3-0.25-0.51c0.03-0.08,0.04-0.11,0.07-0.19c2.56,0.73,3.83,1.1,6.39,1.83c0.14,0.36,0.21,0.55,0.35,0.91
					c0.1,0.2,0.15,0.3,0.25,0.51c-0.03,0.08-0.04,0.11-0.07,0.19C-170.4,22.74-170.93,22.59-172,22.28z"/>
				<path class="st20" d="M-170.66,21.85c-0.1-0.2-0.15-0.3-0.25-0.51c0.03-0.08,0.04-0.11,0.07-0.19c4.66,1.33,6.99,2,11.64,3.33
					c0.13,0.36,0.2,0.54,0.33,0.9c0.1,0.2,0.15,0.3,0.25,0.51c-0.03,0.08-0.04,0.11-0.07,0.19c-1.07-0.31-1.61-0.46-2.68-0.76
					c-1.43,4-2.15,6-3.58,9.99c-0.12-0.03-0.18-0.05-0.29-0.08c-0.18-0.23-0.28-0.35-0.46-0.58c-0.27-0.27-0.4-0.41-0.67-0.68
					c1.31-3.66,1.96-5.48,3.27-9.14c-1.4-0.4-2.1-0.6-3.5-1c-0.85,2.38-1.28,3.56-2.13,5.94c-0.41-0.12-0.61-0.18-1.02-0.29
					c-0.47-0.8-1.08-2.18-0.89-2.71c0.13-0.36,0.53-0.32,1.4-0.45c0.16-0.45,0.29-1.05,0.71-2.23c0.11-0.29,0.16-0.44,0.26-0.74
					c-0.83-0.24-1.24-0.35-2.06-0.59C-170.46,22.4-170.52,22.22-170.66,21.85z"/>
				<path class="st20" d="M-150.66,28.38c-1.43,4-2.15,6-3.58,10c-0.12-0.03-0.18-0.05-0.29-0.08c-0.18-0.23-0.28-0.35-0.46-0.58
					c-0.27-0.27-0.4-0.41-0.67-0.68c0,0,0.57-1.22,1.06-2.6c-0.53,0.39-1.49,0.82-2.88,0.42c-1.1-0.31-1.84-1.09-2.35-2.09
					c-0.43-0.84-0.72-1.94-0.4-2.83c0.53-1.49,2.23-2.06,3.89-1.59c0.43,0.12,0.9,0.33,1.22,0.58c0.14,0.61,0.21,0.91,0.35,1.51
					c-0.07,0.04-0.1,0.06-0.17,0.1c-0.38-0.26-0.84-0.49-1.28-0.61c-1.22-0.35-2.43-0.05-2.83,1.06c-0.31,0.86,0.07,2.04,1.57,2.47
					c1.53,0.44,3.2-0.22,3.79-1.86c0.53-1.48,0.79-2.22,1.32-3.7c-2.92-0.83-4.38-1.25-7.3-2.08c-0.13-0.36-0.2-0.54-0.33-0.9
					c-0.1-0.2-0.15-0.3-0.25-0.51c0.03-0.08,0.04-0.11,0.07-0.19c4.67,1.34,7.01,2,11.68,3.34c0.13,0.36,0.2,0.54,0.33,0.9
					c0.1,0.2,0.15,0.3,0.25,0.51c-0.03,0.08-0.04,0.11-0.07,0.19C-149.06,28.84-149.59,28.68-150.66,28.38z"/>
				<path class="st20" d="M-149.29,27.96c-0.1-0.2-0.15-0.3-0.25-0.51c0.03-0.08,0.04-0.11,0.07-0.19c4.6,1.32,6.9,1.97,11.5,3.29
					c0.14,0.36,0.21,0.55,0.35,0.91c0.1,0.2,0.15,0.3,0.25,0.51c-0.03,0.08-0.04,0.11-0.07,0.19c-1.07-0.31-1.6-0.46-2.67-0.76
					c-1.43,4-2.15,6-3.58,9.99c-0.12-0.03-0.18-0.05-0.29-0.08c-0.19-0.23-0.28-0.35-0.46-0.59c-0.27-0.27-0.4-0.41-0.67-0.68
					c0,0,0.59-1.53,1.93-5.28c-0.83-0.24-1.25-0.36-2.08-0.6c-1.69-0.48-2.73,0.07-3.12,1.15c-0.4,1.11-0.08,2.66,0.64,4.22
					c-0.47,0.06-0.7,0.09-1.16,0.16c-0.61-1.44-1.45-3.71-0.83-5.44c0.56-1.56,2.21-2.24,4.26-1.65c1.1,0.31,1.65,0.47,2.75,0.79
					c0.36-0.99,0.53-1.49,0.89-2.48c-2.85-0.81-4.27-1.22-7.12-2.03C-149.1,28.5-149.16,28.32-149.29,27.96z"/>
			</g>
		</g>
	</g>
</g>
<g>
	<path class="st24" d="M-117.68-115.99c-0.01-0.73-0.31-1.01-0.8-1.02c-0.26,0-0.57-0.04-0.76-0.25c-1.41-1.6-2.68-3.4-3.75-5.5
		c-1.25-2.46-1.99-5.16-1.85-8.28c0.1-2.29,0.52-4.32,1.83-5.84c0.83-0.96,1.58-2.07,2.3-3.21c0.26-0.41,0.42-1.07,0.45-1.63
		c0.07-1.22,0.02-2.46,0.02-3.69c-0.02,0-0.04,0-0.05,0c0-1.5,0-2.99,0-4.49c0-0.67-0.23-1.02-0.67-1.14
		c-1.56-0.44-3.12-0.91-4.69-1.35c-5.88-1.64-11.76-3.28-17.64-4.91c-5.68-1.58-11.37-3.15-17.05-4.72
		c-4.68-1.29-9.36-2.58-14.03-3.86c-2.93-0.8-5.84-0.72-8.7,0.56c-2.47,1.1-4.72,2.89-6.9,4.88c-9.72,8.89-18.73,19.15-27.05,30.66
		c-5.13,7.11-10.03,14.56-15.03,21.87c-1.81,2.64-2.89,5.88-3.58,9.43c-0.86,4.41-0.94,8.91-0.55,13.44
		c0.48,5.58,1.8,10.68,4.2,15.1c1.95,3.59,4.43,6.04,7.53,7.04c2.57,0.83,5.15,1.66,7.72,2.49c6.01,1.93,12.02,3.85,18.03,5.78
		c5.79,1.86,11.59,3.72,17.38,5.59c5.22,1.68,10.44,3.36,15.67,5.03c0.87,0.28,1.76,0.49,2.64,0.7c0.37,0.09,0.66-0.16,0.86-0.66
		c0.23-0.56,0.47-1.14,0.79-1.6c13.67-20.11,27.35-40.22,41.02-60.32c0.77-1.14,1.55-2.28,2.29-3.46c0.2-0.32,0.4-0.78,0.4-1.18
		C-117.62-112.36-117.65-114.17-117.68-115.99z"/>
	<g>
		<g id="pwZKoX.tif_00000099653324569563505600000014110181082498205622_">
			<g>
				<path class="st20" d="M-120.23-145.4c-0.02,0-0.04,0-0.05,0c0-1.5,0-2.99,0-4.49c0-0.67-0.23-1.02-0.67-1.14
					c-1.56-0.44-3.12-0.91-4.69-1.35c-5.88-1.64-11.76-3.28-17.64-4.91c-5.68-1.58-11.37-3.15-17.05-4.72
					c-4.68-1.29-9.36-2.58-14.03-3.86c-2.93-0.8-5.84-0.72-8.7,0.56c-2.47,1.1-4.72,2.89-6.9,4.88
					c-9.72,8.89-18.73,19.15-27.05,30.66c-5.13,7.11-10.03,14.56-15.03,21.87c-1.81,2.64-2.89,5.88-3.58,9.43
					c-0.86,4.41-0.94,8.91-0.55,13.44c0.48,5.58,1.8,10.68,4.2,15.1c1.95,3.59,4.43,6.04,7.53,7.04c2.57,0.83,5.15,1.66,7.72,2.49
					c6.01,1.93,12.02,3.85,18.03,5.78c5.79,1.86,11.59,3.72,17.38,5.59c5.22,1.68,10.44,3.36,15.67,5.03
					c0.87,0.28,1.76,0.49,2.64,0.7c0.37,0.09,0.66-0.16,0.86-0.66c0.23-0.56,0.47-1.14,0.79-1.6
					c13.67-20.11,27.35-40.22,41.02-60.32c0.77-1.14,1.55-2.28,2.29-3.46c0.2-0.32,0.4-0.78,0.4-1.18c0.03-1.82,0-3.63-0.03-5.45
					c-0.01-0.73-0.31-1.01-0.8-1.02c-0.26,0-0.57-0.04-0.76-0.25c-1.41-1.6-2.68-3.4-3.75-5.5c-1.25-2.46-1.99-5.16-1.85-8.28
					c0.1-2.29,0.52-4.32,1.83-5.84c0.83-0.96,1.58-2.07,2.3-3.21c0.26-0.41,0.42-1.07,0.45-1.63
					C-120.18-142.94-120.23-144.17-120.23-145.4z"/>
				<path class="st12" d="M-120.23-145.4c0,1.23,0.05,2.47-0.02,3.69c-0.03,0.56-0.19,1.22-0.45,1.63c-0.72,1.14-1.47,2.25-2.3,3.21
					c-1.32,1.52-1.74,3.55-1.83,5.84c-0.13,3.12,0.6,5.82,1.85,8.28c1.07,2.1,2.34,3.9,3.75,5.5c0.19,0.21,0.5,0.25,0.76,0.25
					c0.49,0.01,0.79,0.28,0.8,1.02c0.03,1.82,0.06,3.63,0.03,5.45c-0.01,0.4-0.2,0.87-0.4,1.18c-0.74,1.18-1.52,2.32-2.29,3.46
					c-13.68,20.11-27.35,40.21-41.02,60.32c-0.31,0.46-0.55,1.04-0.79,1.6c-0.21,0.5-0.49,0.75-0.86,0.66
					c-0.88-0.2-1.77-0.42-2.64-0.7c-5.22-1.67-10.44-3.35-15.67-5.03c-5.79-1.86-11.59-3.73-17.38-5.59
					c-6.01-1.93-12.02-3.85-18.03-5.78c-2.57-0.83-5.15-1.66-7.72-2.49c-3.1-1-5.58-3.45-7.53-7.04c-2.41-4.43-3.72-9.52-4.2-15.1
					c-0.39-4.53-0.31-9.02,0.55-13.44c0.69-3.54,1.77-6.78,3.58-9.43c5-7.3,9.9-14.76,15.03-21.87
					c8.31-11.52,17.32-21.77,27.05-30.66c2.18-1.99,4.43-3.78,6.9-4.88c2.86-1.28,5.77-1.35,8.7-0.56
					c4.68,1.27,9.36,2.56,14.03,3.86c5.68,1.57,11.37,3.14,17.05,4.72c5.88,1.63,11.76,3.27,17.64,4.91
					c1.56,0.44,3.12,0.91,4.69,1.35c0.45,0.13,0.67,0.48,0.67,1.14c0,1.5,0,2.99,0,4.49C-120.27-145.4-120.25-145.4-120.23-145.4z
					 M-227.6-111.79c0.04,0.09,0.08,0.19,0.12,0.28c2.59-0.27,5.13,0.24,7.64,1.03c6.28,1.99,12.55,4,18.83,6.01
					c8.03,2.57,16.06,5.13,24.09,7.71c4.65,1.49,9.3,2.97,13.94,4.5c0.44,0.14,0.68-0.07,0.96-0.47c6.44-9.21,12.9-18.4,19.33-27.62
					c6.47-9.28,12.93-18.59,19.39-27.88c0.19-0.27,0.41-0.48,0.62-0.72c-0.03-0.09-0.06-0.19-0.08-0.28
					c-0.29-0.11-0.58-0.25-0.87-0.33c-5.74-1.58-11.48-3.15-17.22-4.74c-4.32-1.19-8.63-2.42-12.95-3.62
					c-6.49-1.8-12.98-3.63-19.49-5.36c-1.72-0.46-3.49-0.8-5.23-0.8c-3.18,0-6.12,1.51-8.85,3.84c-1.56,1.34-3.08,2.79-4.6,4.23
					c-5.66,5.37-11.09,11.2-16.22,17.6c-6.52,8.14-12.8,16.67-18.72,25.75C-227.11-112.33-227.36-112.07-227.6-111.79z
					 M-165.33-85.21c-19.08-6.18-38.02-12.31-57.1-18.49c0.22,1.34-0.25,1.84-0.82,2.28c-0.42,0.32-0.82,0.7-1.22,1.07
					c-1.28,1.22-2.53,2.48-3.43,4.33c-1.39,2.87-1.69,6.16-1.63,9.55c0.06,3.39,0.72,6.64,1.28,9.9c0.06,0.34,0.24,0.66,0.41,0.92
					c1.07,1.56,2.24,2.99,3.66,3.76c1.52,0.83,3.08,1.58,4.66,2.06c6.67,2,13.36,3.88,20.04,5.8c5.23,1.51,10.46,3.01,15.68,4.52
					c5.33,1.54,10.67,3.08,16,4.62c0.29,0.08,0.58,0.13,0.99,0.22c-0.18-0.36-0.27-0.53-0.35-0.69c-1.32-2.6-2.72-5.12-3.92-7.83
					c-0.73-1.66-1.27-3.55-1.7-5.44c-0.63-2.76-0.07-5.33,0.99-7.69c1.4-3.13,3.37-5.4,5.37-7.63
					C-166.07-84.34-165.73-84.74-165.33-85.21z M-121.77-147.29c-0.47,0.64-0.85,1.12-1.21,1.64c-5.41,7.73-10.81,15.47-16.21,23.21
					c-7.27,10.42-14.55,20.83-21.79,31.3c-0.77,1.12-1.51,1.35-2.51,1.02c-5.06-1.66-10.12-3.26-15.18-4.89
					c-6.65-2.13-13.31-4.27-19.96-6.4c-7.03-2.25-14.06-4.51-21.09-6.71c-2.33-0.73-4.67-1.38-7.08-1.19
					c-1.57,0.13-2.91,0.94-4.03,2.56c-1.19,1.72-2.1,3.71-2.71,5.97c-1.3,4.75-1.57,9.69-1.18,14.73c0.38,4.9,1.3,9.53,3.26,13.62
					c1.82,3.81,4.19,6.44,7.38,7.36c1.53,0.44,3.04,0.95,4.56,1.44c7.33,2.35,14.66,4.7,21.99,7.05
					c10.01,3.21,20.03,6.42,30.04,9.63c1.21,0.39,2.42,0.78,3.63,1.16c0.04-0.13,0.09-0.21,0.08-0.28c-0.16-1.72-0.31-3.44-0.5-5.15
					c-0.02-0.2-0.26-0.43-0.42-0.49c-0.6-0.21-1.22-0.35-1.83-0.53c-5.95-1.71-11.89-3.42-17.84-5.14
					c-7.44-2.14-14.87-4.29-22.31-6.43c-3.7-1.07-7.4-2.11-11.1-3.2c-2.26-0.66-4.52-1.23-6.66-2.65
					c-6.95-4.63-10.42-16.7-7.67-26.9c1.59-5.92,5.11-9.5,9.31-9.17c1.72,0.14,3.44,0.72,5.14,1.26c6.62,2.1,13.23,4.27,19.84,6.41
					c7.92,2.57,15.84,5.13,23.75,7.7c4.09,1.33,8.18,2.68,12.28,3.98c0.24,0.07,0.6-0.16,0.79-0.42c2.56-3.56,5.09-7.17,7.65-10.74
					c6.45-9.01,12.91-18,19.36-27c3.92-5.47,7.84-10.95,11.75-16.44c0.19-0.27,0.45-0.62,0.46-0.94
					C-121.74-143.63-121.77-145.36-121.77-147.29z M-126.41-132.03c-0.14,0.14-0.24,0.2-0.31,0.3c-5.19,7.29-10.36,14.6-15.57,21.86
					c-6.05,8.45-12.12,16.86-18.18,25.3c-0.33,0.46-0.68,0.68-1.14,0.51c-0.46-0.17-0.93-0.32-1.4-0.38
					c-0.26-0.03-0.58,0.05-0.79,0.26c-0.71,0.71-1.38,1.5-2.07,2.26c-1.6,1.79-3.15,3.66-4.38,6.05c-1.26,2.46-1.61,5.15-0.8,8
					c0.47,1.64,1,3.29,1.7,4.73c1.32,2.73,2.78,5.31,4.17,7.95c0.24,0.46,0.48,0.93,0.81,1.57c14.82-20.62,29.6-41.17,44.39-61.75
					c-1.62-1.94-3.08-3.91-4.25-6.3c-1.42-2.92-2.43-6.03-2.15-9.76C-126.35-131.6-126.39-131.77-126.41-132.03z M-162.32-47.33
					c0.27-0.36,0.45-0.6,0.63-0.86c3.56-5.21,7.13-10.41,10.67-15.64c10.39-15.33,20.76-30.68,31.18-45.98
					c0.72-1.06,0.74-2.12,0.67-3.56c-0.44,0.57-0.8,1-1.14,1.47c-2.78,3.89-5.54,7.79-8.33,11.67c-4.42,6.14-8.87,12.24-13.29,18.38
					c-6.68,9.27-13.34,18.58-20.04,27.83c-0.66,0.91-1.01,1.72-0.73,3.08C-162.49-49.84-162.46-48.66-162.32-47.33z M-231.05-84.55
					c-0.14-3.85-0.01-7.64,1.23-11.15c1.27-3.58,3.57-5.53,5.8-7.64c-0.15-0.08-0.29-0.1-0.42-0.07c-2.19,0.48-3.99,1.96-5.22,4.68
					c-1.16,2.57-1.78,5.44-1.88,8.52C-231.6-88.29-231.51-86.39-231.05-84.55z"/>
				<path class="st23" d="M-227.6-111.79c0.23-0.29,0.49-0.54,0.7-0.86c5.92-9.08,12.19-17.61,18.72-25.75
					c5.13-6.4,10.56-12.23,16.22-17.6c1.52-1.44,3.04-2.89,4.6-4.23c2.73-2.34,5.67-3.84,8.85-3.84c1.74,0,3.51,0.34,5.23,0.8
					c6.5,1.73,12.99,3.56,19.49,5.36c4.32,1.2,8.63,2.42,12.95,3.62c5.74,1.59,11.48,3.16,17.22,4.74c0.29,0.08,0.58,0.22,0.87,0.33
					c0.03,0.09,0.06,0.19,0.08,0.28c-0.21,0.24-0.43,0.45-0.62,0.72c-6.46,9.29-12.92,18.6-19.39,27.88
					c-6.43,9.22-12.89,18.41-19.33,27.62c-0.28,0.39-0.52,0.61-0.96,0.47c-4.64-1.53-9.29-3.01-13.94-4.5
					c-8.03-2.57-16.06-5.14-24.09-7.71c-6.28-2.01-12.55-4.03-18.83-6.01c-2.51-0.79-5.05-1.3-7.64-1.03
					C-227.52-111.6-227.56-111.69-227.6-111.79z"/>
				<path class="st19" d="M-165.33-85.21c-0.41,0.47-0.74,0.87-1.09,1.25c-2,2.23-3.97,4.5-5.37,7.63
					c-1.05,2.36-1.61,4.93-0.99,7.69c0.43,1.88,0.97,3.78,1.7,5.44c1.2,2.71,2.6,5.23,3.92,7.83c0.08,0.17,0.17,0.33,0.35,0.69
					c-0.42-0.09-0.71-0.13-0.99-0.22c-5.33-1.54-10.67-3.08-16-4.62c-5.23-1.51-10.46-3.01-15.68-4.52
					c-6.68-1.92-13.37-3.8-20.04-5.8c-1.58-0.47-3.14-1.23-4.66-2.06c-1.42-0.78-2.59-2.21-3.66-3.76
					c-0.18-0.25-0.36-0.58-0.41-0.92c-0.56-3.26-1.22-6.5-1.28-9.9c-0.06-3.39,0.24-6.68,1.63-9.55c0.9-1.85,2.16-3.11,3.43-4.33
					c0.4-0.38,0.8-0.76,1.22-1.07c0.58-0.44,1.04-0.94,0.82-2.28C-203.35-97.52-184.41-91.38-165.33-85.21z M-172.02-60.3
					c0.42-0.04,0.75-0.22,0.85-0.84c0.11-0.64-0.17-1-0.53-1.23c-0.17-0.1-0.35-0.18-0.52-0.23c-3.93-1.18-7.85-2.36-11.79-3.52
					c-6.14-1.81-12.28-3.59-18.41-5.39c-6.96-2.04-13.92-4.09-20.89-6.13c-0.63-0.18-1.26-0.35-1.9-0.38
					c-0.22-0.01-0.54,0.36-0.64,0.67c-0.08,0.28,0,0.84,0.15,1.07c0.18,0.27,0.51,0.39,0.79,0.47c3.89,1.15,7.79,2.29,11.68,3.43
					c7.99,2.35,15.98,4.69,23.96,7.04c4.4,1.29,8.8,2.59,13.19,3.87C-174.72-61.07-173.37-60.69-172.02-60.3z M-174.97-68.06
					c0.42-0.08,0.79-0.2,0.89-0.9c0.09-0.66-0.21-0.97-0.58-1.18c-0.14-0.07-0.28-0.14-0.42-0.18c-2.69-0.83-5.37-1.67-8.06-2.48
					c-6.07-1.84-12.15-3.68-18.23-5.51c-7.42-2.23-14.85-4.46-22.27-6.68c-1.08-0.32-2.15-0.66-3.23-0.96
					c-0.55-0.15-0.93,0.17-1.05,0.81c-0.1,0.59,0.19,1.15,0.71,1.38c0.11,0.05,0.21,0.09,0.32,0.12c1.58,0.47,3.16,0.94,4.74,1.41
					c5.67,1.7,11.33,3.41,17,5.12c4.79,1.44,9.57,2.89,14.36,4.33c4.02,1.21,8.03,2.42,12.05,3.62
					C-177.48-68.79-176.22-68.43-174.97-68.06z M-175.05-76.01c0.45,0.02,0.76-0.25,0.88-0.88c0.11-0.62-0.17-0.95-0.5-1.18
					c-0.18-0.13-0.38-0.21-0.57-0.26c-3.18-0.94-6.35-1.86-9.53-2.79c-6.28-1.84-12.56-3.68-18.85-5.51
					c-6.95-2.02-13.9-4.03-20.84-6.05c-0.77-0.22-1.54-0.46-2.32-0.65c-0.67-0.17-1.04,0.1-1.14,0.79c-0.1,0.68,0.19,1.17,0.83,1.39
					c0.18,0.06,0.36,0.12,0.54,0.17c6.61,1.93,13.22,3.85,19.83,5.78c9.3,2.71,18.6,5.42,27.91,8.13
					C-177.56-76.73-176.3-76.37-175.05-76.01z M-171.05-82.87c0.17-0.16,0.52-0.31,0.66-0.65c0.29-0.66,0.08-1.29-0.51-1.51
					c-1.03-0.39-2.07-0.7-3.11-1c-6.16-1.79-12.33-3.56-18.49-5.34c-4.96-1.43-9.91-2.88-14.87-4.32
					c-4.31-1.25-8.62-2.52-12.93-3.77c-0.9-0.26-1.8-0.5-2.7-0.69c-0.41-0.09-0.79,0.1-0.88,0.79c-0.09,0.7,0.2,1.09,0.62,1.32
					c0.1,0.05,0.21,0.1,0.32,0.13c0.75,0.23,1.51,0.45,2.26,0.67c6.45,1.87,12.9,3.74,19.35,5.61c4.44,1.29,8.87,2.57,13.31,3.86
					c4.44,1.29,8.87,2.57,13.31,3.86C-173.54-83.59-172.38-83.26-171.05-82.87z"/>
				<path class="st14" d="M-121.77-147.29c0,1.93,0.02,3.66-0.02,5.38c-0.01,0.32-0.27,0.68-0.46,0.94
					c-3.91,5.49-7.83,10.97-11.75,16.44c-6.45,9-12.91,17.99-19.36,27c-2.56,3.57-5.09,7.18-7.65,10.74
					c-0.19,0.27-0.56,0.5-0.79,0.42c-4.1-1.3-8.19-2.65-12.28-3.98c-7.92-2.57-15.83-5.13-23.75-7.7
					c-6.61-2.14-13.22-4.31-19.84-6.41c-1.7-0.54-3.41-1.12-5.14-1.26c-4.19-0.33-7.71,3.25-9.31,9.17
					c-2.74,10.2,0.72,22.27,7.67,26.9c2.13,1.42,4.4,1.99,6.66,2.65c3.7,1.09,7.4,2.13,11.1,3.2c7.44,2.14,14.87,4.29,22.31,6.43
					c5.95,1.71,11.89,3.43,17.84,5.14c0.61,0.18,1.23,0.32,1.83,0.53c0.16,0.06,0.4,0.29,0.42,0.49c0.19,1.71,0.34,3.43,0.5,5.15
					c0.01,0.07-0.04,0.14-0.08,0.28c-1.21-0.39-2.42-0.77-3.63-1.16c-10.01-3.21-20.03-6.42-30.04-9.63
					c-7.33-2.35-14.66-4.7-21.99-7.05c-1.52-0.49-3.04-1-4.56-1.44c-3.19-0.91-5.56-3.55-7.38-7.36c-1.96-4.09-2.88-8.72-3.26-13.62
					c-0.39-5.04-0.12-9.98,1.18-14.73c0.62-2.26,1.52-4.26,2.71-5.97c1.12-1.61,2.47-2.43,4.03-2.56c2.41-0.2,4.75,0.46,7.08,1.19
					c7.04,2.2,14.06,4.47,21.09,6.71c6.65,2.13,13.31,4.26,19.96,6.4c5.06,1.62,10.13,3.23,15.18,4.89c1,0.33,1.73,0.09,2.51-1.02
					c7.24-10.47,14.52-20.88,21.79-31.3c5.4-7.74,10.81-15.47,16.21-23.21C-122.61-146.16-122.24-146.65-121.77-147.29z"/>
				<path class="st19" d="M-126.41-132.03c0.02,0.26,0.06,0.44,0.05,0.61c-0.29,3.72,0.72,6.84,2.15,9.76
					c1.17,2.39,2.63,4.37,4.25,6.3c-14.79,20.58-29.57,41.13-44.39,61.75c-0.33-0.64-0.57-1.11-0.81-1.57
					c-1.4-2.64-2.86-5.22-4.17-7.95c-0.7-1.44-1.23-3.09-1.7-4.73c-0.81-2.85-0.46-5.54,0.8-8c1.22-2.38,2.77-4.25,4.38-6.05
					c0.68-0.76,1.36-1.55,2.07-2.26c0.21-0.21,0.53-0.29,0.79-0.26c0.47,0.06,0.94,0.21,1.4,0.38c0.47,0.17,0.81-0.05,1.14-0.51
					c6.06-8.44,12.13-16.85,18.18-25.3c5.2-7.27,10.38-14.58,15.57-21.86C-126.65-131.83-126.55-131.9-126.41-132.03z
					 M-165.22-56.58c0.13-0.11,0.4-0.28,0.6-0.56c1.33-1.76,2.64-3.55,3.97-5.32c4.62-6.19,9.23-12.37,13.85-18.55
					c7.28-9.74,14.56-19.48,21.84-29.22c0.88-1.17,1.74-2.37,2.6-3.57c0.41-0.57,0.45-1.18,0.16-1.62
					c-0.28-0.44-0.72-0.42-1.14,0.06c-0.16,0.18-0.3,0.38-0.45,0.58c-5.83,7.82-11.66,15.63-17.49,23.45
					c-4.61,6.19-9.22,12.39-13.83,18.58c-3.32,4.45-6.65,8.89-9.97,13.34c-0.29,0.4-0.59,0.81-0.81,1.3
					C-166.24-57.33-165.97-56.6-165.22-56.58z M-168.78-68.62c0.29-0.26,0.56-0.44,0.77-0.72c0.85-1.11,1.67-2.25,2.51-3.37
					c6.07-8.11,12.14-16.21,18.21-24.32c6.55-8.76,13.1-17.53,19.65-26.3c0.23-0.31,0.54-0.58,0.64-0.96
					c0.11-0.41,0.1-1.01-0.04-1.37c-0.09-0.22-0.56-0.24-0.82-0.14c-0.24,0.09-0.44,0.45-0.64,0.72c-3.34,4.46-6.66,8.94-10.01,13.4
					c-4.64,6.19-9.29,12.35-13.93,18.54c-5.34,7.13-10.67,14.28-16,21.42c-0.3,0.4-0.63,0.77-0.85,1.25
					c-0.14,0.3-0.18,0.82-0.1,1.17C-169.32-69.02-169.01-68.87-168.78-68.62z M-167.34-64.12c0,1.03,0.48,1.5,0.96,1.15
					c0.33-0.25,0.64-0.63,0.91-1.01c2.81-3.8,5.6-7.63,8.4-11.43c5.42-7.36,10.85-14.71,16.27-22.06
					c4.55-6.17,9.1-12.34,13.65-18.51c0.56-0.76,1.12-1.54,1.67-2.33c0.29-0.41,0.34-0.88,0.07-1.36c-0.27-0.49-0.61-0.57-0.97-0.21
					c-0.18,0.18-0.36,0.37-0.52,0.59c-2.9,3.94-5.79,7.88-8.69,11.82c-4.97,6.76-9.95,13.52-14.93,20.28
					c-4.02,5.46-8.05,10.93-12.08,16.38c-1.41,1.91-2.84,3.79-4.25,5.71C-167.07-64.78-167.23-64.33-167.34-64.12z"/>
				<path class="st20" d="M-162.32-47.33c-0.13-1.33-0.17-2.51-0.39-3.61c-0.27-1.36,0.07-2.17,0.73-3.08
					c6.7-9.25,13.36-18.55,20.04-27.83c4.42-6.14,8.87-12.24,13.29-18.38c2.79-3.87,5.55-7.78,8.33-11.67
					c0.34-0.47,0.7-0.91,1.14-1.47c0.07,1.45,0.05,2.51-0.67,3.56c-10.41,15.29-20.79,30.65-31.18,45.98
					c-3.55,5.23-7.11,10.43-10.67,15.64C-161.87-47.94-162.06-47.69-162.32-47.33z"/>
				<path class="st20" d="M-231.05-84.55c-0.46-1.84-0.55-3.74-0.49-5.66c0.1-3.08,0.71-5.94,1.88-8.52
					c1.23-2.72,3.03-4.19,5.22-4.68c0.13-0.03,0.27,0,0.42,0.07c-2.23,2.1-4.54,4.05-5.8,7.64
					C-231.06-92.19-231.19-88.4-231.05-84.55z"/>
				<path class="st20" d="M-172.02-60.3c-1.35-0.39-2.69-0.77-4.04-1.16c-4.4-1.29-8.8-2.58-13.19-3.87
					c-7.99-2.35-15.98-4.69-23.96-7.04c-3.9-1.14-7.79-2.28-11.68-3.43c-0.28-0.08-0.61-0.2-0.79-0.47
					c-0.15-0.23-0.24-0.79-0.15-1.07c0.09-0.31,0.42-0.68,0.64-0.67c0.64,0.03,1.27,0.19,1.9,0.38c6.96,2.04,13.92,4.09,20.89,6.13
					c6.14,1.8,12.28,3.58,18.41,5.39c3.93,1.16,7.86,2.34,11.79,3.52c0.18,0.05,0.36,0.13,0.52,0.23c0.37,0.23,0.64,0.58,0.53,1.23
					C-171.27-60.52-171.61-60.33-172.02-60.3z"/>
				<path class="st20" d="M-174.97-68.06c-1.26-0.37-2.51-0.73-3.77-1.1c-4.02-1.2-8.03-2.41-12.05-3.62
					c-4.79-1.44-9.57-2.89-14.36-4.33c-5.67-1.71-11.33-3.41-17-5.12c-1.58-0.47-3.16-0.94-4.74-1.41
					c-0.11-0.03-0.21-0.07-0.32-0.12c-0.53-0.23-0.81-0.79-0.71-1.38c0.11-0.64,0.5-0.96,1.05-0.81c1.08,0.3,2.15,0.64,3.23,0.96
					c7.42,2.23,14.85,4.45,22.27,6.68c6.08,1.83,12.15,3.66,18.23,5.51c2.69,0.82,5.37,1.65,8.06,2.48
					c0.14,0.04,0.28,0.11,0.42,0.18c0.37,0.2,0.66,0.51,0.58,1.18C-174.17-68.26-174.55-68.14-174.97-68.06z"/>
				<path class="st20" d="M-175.05-76.01c-1.26-0.36-2.52-0.72-3.77-1.08c-9.3-2.71-18.6-5.42-27.91-8.13
					c-6.61-1.93-13.22-3.85-19.83-5.78c-0.18-0.05-0.36-0.11-0.54-0.17c-0.65-0.22-0.93-0.7-0.83-1.39c0.1-0.69,0.47-0.96,1.14-0.79
					c0.77,0.2,1.55,0.43,2.32,0.65c6.95,2.02,13.9,4.03,20.84,6.05c6.28,1.83,12.56,3.67,18.85,5.51c3.18,0.93,6.35,1.86,9.53,2.79
					c0.2,0.06,0.39,0.14,0.57,0.26c0.33,0.23,0.61,0.57,0.5,1.18C-174.28-76.26-174.6-75.99-175.05-76.01z"/>
				<path class="st20" d="M-171.05-82.87c-1.33-0.38-2.5-0.71-3.66-1.05c-4.44-1.28-8.87-2.57-13.31-3.86
					c-4.44-1.29-8.87-2.57-13.31-3.86c-6.45-1.87-12.9-3.74-19.35-5.61c-0.75-0.22-1.51-0.44-2.26-0.67
					c-0.11-0.03-0.21-0.07-0.32-0.13c-0.42-0.22-0.71-0.62-0.62-1.32c0.09-0.69,0.47-0.88,0.88-0.79c0.9,0.2,1.81,0.43,2.7,0.69
					c4.31,1.25,8.62,2.51,12.93,3.77c4.96,1.44,9.91,2.88,14.87,4.32c6.16,1.78,12.33,3.56,18.49,5.34c1.04,0.3,2.08,0.62,3.11,1
					c0.58,0.22,0.79,0.85,0.51,1.51C-170.53-83.19-170.87-83.04-171.05-82.87z"/>
				<path class="st20" d="M-165.22-56.58c-0.75-0.03-1.02-0.76-0.67-1.53c0.22-0.48,0.52-0.9,0.81-1.3
					c3.32-4.45,6.65-8.89,9.97-13.34c4.61-6.19,9.22-12.39,13.83-18.58c5.83-7.82,11.66-15.63,17.49-23.45
					c0.15-0.2,0.29-0.4,0.45-0.58c0.42-0.48,0.85-0.5,1.14-0.06c0.29,0.44,0.25,1.05-0.16,1.62c-0.86,1.21-1.72,2.4-2.6,3.57
					c-7.28,9.74-14.56,19.48-21.84,29.22c-4.62,6.18-9.23,12.37-13.85,18.55c-1.32,1.77-2.64,3.56-3.97,5.32
					C-164.82-56.86-165.09-56.69-165.22-56.58z"/>
				<path class="st20" d="M-168.78-68.62c-0.24-0.24-0.55-0.4-0.61-0.67c-0.08-0.34-0.04-0.86,0.1-1.17
					c0.22-0.48,0.55-0.85,0.85-1.25c5.33-7.14,10.66-14.29,16-21.42c4.64-6.19,9.29-12.35,13.93-18.54
					c3.34-4.46,6.67-8.93,10.01-13.4c0.2-0.27,0.4-0.63,0.64-0.72c0.26-0.1,0.72-0.08,0.82,0.14c0.15,0.35,0.15,0.96,0.04,1.37
					c-0.1,0.38-0.41,0.66-0.64,0.96c-6.55,8.77-13.1,17.53-19.65,26.3c-6.07,8.11-12.14,16.21-18.21,24.32
					c-0.84,1.12-1.66,2.26-2.51,3.37C-168.22-69.06-168.49-68.88-168.78-68.62z"/>
				<path class="st20" d="M-167.34-64.12c0.11-0.22,0.27-0.67,0.51-0.99c1.41-1.92,2.84-3.8,4.25-5.71
					c4.03-5.46,8.05-10.92,12.08-16.38c4.98-6.76,9.95-13.52,14.93-20.28c2.9-3.94,5.79-7.88,8.69-11.82
					c0.16-0.22,0.34-0.41,0.52-0.59c0.36-0.35,0.7-0.28,0.97,0.21c0.27,0.48,0.22,0.94-0.07,1.36c-0.55,0.78-1.11,1.56-1.67,2.33
					c-4.55,6.17-9.1,12.34-13.65,18.51c-5.42,7.35-10.85,14.7-16.27,22.06c-2.8,3.81-5.6,7.63-8.4,11.43
					c-0.28,0.38-0.58,0.76-0.91,1.01C-166.86-62.61-167.33-63.09-167.34-64.12z"/>
			</g>
		</g>
		<g>
			<g>
				<path class="st20" d="M-183.35-146.83c0.52-1.5,0.79-2.24,1.31-3.74c-0.75-0.22-1.12-0.33-1.87-0.55
					c-0.13-0.37-0.2-0.55-0.33-0.92c-0.1-0.21-0.15-0.31-0.25-0.52c0.03-0.08,0.04-0.12,0.07-0.19c2.51,0.73,3.76,1.1,6.27,1.83
					c0.13,0.37,0.2,0.55,0.33,0.92c0.1,0.21,0.15,0.31,0.25,0.52c-0.03,0.08-0.04,0.12-0.07,0.19c-1.07-0.31-1.61-0.47-2.68-0.78
					c-1.43,4.08-2.15,6.13-3.58,10.21c-0.12-0.03-0.18-0.05-0.3-0.09c-0.18-0.24-0.28-0.36-0.46-0.6c-0.27-0.28-0.41-0.42-0.69-0.7
					c0,0,0.66-1.58,1.59-4.24c-1.58-0.46-2.37-0.69-3.95-1.15c-0.24,0.67-0.35,1.01-0.59,1.68c-0.37-0.11-0.55-0.16-0.92-0.27
					c-0.7-1.11-0.95-2.19-0.77-2.67c0.11-0.32,0.33-0.44,1.16-0.53c0,0,0.17-0.78,0.66-2.2c0.18-0.51,0.27-0.77,0.45-1.28
					c0.07-0.21,0-0.37-0.38-0.48c-0.57-0.17-1.1-0.09-1.62,0.16c-0.19-0.72-0.29-1.08-0.48-1.8c0.58-0.16,1.14-0.17,1.81,0.03
					c0.61,0.18,1.07,0.55,1.5,1.15c0.52,0.71,0.85,1.41,0.57,2.21c-0.37,1.06-0.56,1.59-0.93,2.66
					C-185.68-147.51-184.9-147.28-183.35-146.83z"/>
				<path class="st20" d="M-174.9-148.49c-1.43,4.08-2.15,6.13-3.58,10.21c-0.12-0.03-0.18-0.05-0.29-0.09
					c-0.18-0.24-0.28-0.36-0.46-0.6c-0.28-0.28-0.41-0.42-0.69-0.7c1.31-3.73,1.96-5.6,3.27-9.34c-0.79-0.23-1.19-0.35-1.99-0.58
					c-0.13-0.37-0.2-0.55-0.33-0.92c-0.1-0.21-0.15-0.31-0.25-0.52c0.03-0.08,0.04-0.12,0.07-0.19c2.56,0.75,3.83,1.12,6.39,1.87
					c0.14,0.37,0.21,0.56,0.35,0.93c0.1,0.21,0.15,0.31,0.25,0.52c-0.03,0.08-0.04,0.12-0.07,0.19
					C-173.3-148.02-173.83-148.18-174.9-148.49z"/>
				<path class="st20" d="M-173.56-148.92c-0.1-0.21-0.15-0.31-0.25-0.52c0.03-0.08,0.04-0.12,0.07-0.19
					c4.66,1.36,6.99,2.04,11.64,3.4c0.13,0.37,0.2,0.55,0.33,0.92c0.1,0.21,0.15,0.31,0.25,0.52c-0.03,0.08-0.04,0.12-0.07,0.19
					c-1.07-0.31-1.61-0.47-2.68-0.78c-1.43,4.08-2.15,6.13-3.58,10.21c-0.12-0.03-0.18-0.05-0.29-0.09
					c-0.18-0.24-0.28-0.36-0.46-0.6c-0.27-0.28-0.4-0.42-0.67-0.7c1.31-3.73,1.96-5.6,3.27-9.34c-1.4-0.41-2.1-0.61-3.5-1.02
					c-0.85,2.43-1.28,3.64-2.13,6.07c-0.41-0.12-0.61-0.18-1.02-0.3c-0.47-0.81-1.08-2.23-0.89-2.77c0.13-0.37,0.53-0.33,1.4-0.46
					c0.16-0.45,0.29-1.07,0.71-2.28c0.11-0.3,0.16-0.45,0.26-0.75c-0.83-0.24-1.24-0.36-2.06-0.6
					C-173.36-148.37-173.43-148.56-173.56-148.92z"/>
				<path class="st20" d="M-153.56-142.26c-1.43,4.08-2.15,6.13-3.58,10.21c-0.12-0.03-0.18-0.05-0.29-0.09
					c-0.18-0.24-0.28-0.36-0.46-0.6c-0.27-0.28-0.4-0.42-0.67-0.7c0,0,0.57-1.24,1.06-2.66c-0.53,0.4-1.49,0.84-2.88,0.43
					c-1.1-0.32-1.84-1.11-2.35-2.13c-0.43-0.86-0.72-1.98-0.4-2.89c0.53-1.52,2.23-2.1,3.89-1.62c0.43,0.13,0.9,0.34,1.22,0.59
					c0.14,0.62,0.21,0.93,0.35,1.55c-0.07,0.04-0.1,0.06-0.17,0.1c-0.38-0.27-0.84-0.5-1.28-0.62c-1.22-0.36-2.43-0.05-2.83,1.08
					c-0.31,0.87,0.07,2.08,1.57,2.52c1.53,0.45,3.2-0.22,3.79-1.9c0.53-1.51,0.79-2.27,1.32-3.78c-2.92-0.85-4.38-1.28-7.3-2.13
					c-0.13-0.37-0.2-0.55-0.33-0.92c-0.1-0.21-0.15-0.31-0.25-0.52c0.03-0.08,0.04-0.12,0.07-0.19c4.67,1.36,7.01,2.05,11.68,3.41
					c0.13,0.37,0.2,0.55,0.33,0.92c0.1,0.21,0.15,0.31,0.25,0.52c-0.03,0.08-0.04,0.12-0.07,0.19
					C-151.96-141.79-152.49-141.95-153.56-142.26z"/>
				<path class="st20" d="M-152.2-142.69c-0.1-0.21-0.15-0.31-0.25-0.52c0.03-0.08,0.04-0.12,0.07-0.19c4.6,1.34,6.9,2.02,11.5,3.36
					c0.14,0.37,0.21,0.56,0.35,0.93c0.1,0.21,0.15,0.31,0.25,0.52c-0.03,0.08-0.04,0.12-0.07,0.19c-1.07-0.31-1.6-0.47-2.67-0.78
					c-1.43,4.08-2.15,6.13-3.58,10.21c-0.12-0.03-0.18-0.05-0.29-0.09c-0.19-0.24-0.28-0.36-0.46-0.6c-0.27-0.28-0.4-0.42-0.67-0.7
					c0,0,0.59-1.56,1.93-5.39c-0.83-0.24-1.25-0.37-2.08-0.61c-1.69-0.49-2.73,0.07-3.12,1.17c-0.4,1.14-0.08,2.71,0.64,4.31
					c-0.47,0.06-0.7,0.1-1.16,0.16c-0.61-1.47-1.45-3.79-0.83-5.56c0.56-1.59,2.21-2.28,4.26-1.69c1.1,0.32,1.65,0.48,2.75,0.8
					c0.36-1.01,0.53-1.52,0.89-2.54c-2.85-0.83-4.27-1.25-7.12-2.08C-152-142.13-152.07-142.32-152.2-142.69z"/>
			</g>
		</g>
	</g>
</g>
<g>
	<g>
		<path class="st20" d="M-252.37,143.44c0.41-1.87,0.61-2.8,1.02-4.67c-0.83-0.16-1.25-0.24-2.08-0.4
			c-0.18-0.43-0.27-0.64-0.45-1.06c-0.13-0.23-0.2-0.35-0.33-0.59c0.02-0.1,0.03-0.14,0.05-0.24c2.79,0.54,4.18,0.8,6.97,1.34
			c0.18,0.43,0.27,0.64,0.45,1.07c0.13,0.23,0.2,0.35,0.33,0.59c-0.02,0.1-0.03,0.14-0.05,0.24c-1.19-0.23-1.78-0.34-2.97-0.57
			c-1.12,5.1-1.68,7.65-2.8,12.76c-0.13-0.02-0.2-0.04-0.33-0.06c-0.22-0.26-0.34-0.39-0.56-0.65c-0.33-0.3-0.49-0.45-0.82-0.75
			c0,0,0.55-1.99,1.28-5.31c-1.76-0.34-2.63-0.51-4.39-0.84c-0.18,0.84-0.28,1.26-0.46,2.1c-0.41-0.08-0.62-0.12-1.03-0.2
			c-0.87-1.24-1.25-2.49-1.12-3.11c0.09-0.39,0.31-0.58,1.2-0.8c0,0,0.1-0.96,0.49-2.73c0.14-0.64,0.21-0.96,0.35-1.59
			c0.06-0.26-0.04-0.44-0.46-0.52c-0.63-0.12-1.19,0.04-1.73,0.42c-0.28-0.84-0.42-1.26-0.7-2.09c0.61-0.27,1.22-0.36,1.96-0.21
			c0.68,0.13,1.21,0.52,1.75,1.18c0.64,0.78,1.07,1.57,0.85,2.58c-0.29,1.33-0.44,1.99-0.73,3.32
			C-254.95,142.94-254.09,143.11-252.37,143.44z"/>
		<path class="st20" d="M-243.41,140.29c-1.12,5.1-1.68,7.65-2.8,12.76c-0.13-0.03-0.2-0.04-0.33-0.06
			c-0.22-0.26-0.34-0.39-0.56-0.65c-0.33-0.3-0.49-0.45-0.82-0.75c1.02-4.67,1.53-7,2.56-11.66c-0.88-0.17-1.32-0.25-2.21-0.42
			c-0.18-0.43-0.27-0.64-0.45-1.07c-0.13-0.23-0.2-0.35-0.33-0.59c0.02-0.1,0.03-0.14,0.05-0.24c2.84,0.55,4.26,0.82,7.1,1.36
			c0.19,0.43,0.28,0.64,0.47,1.07c0.13,0.23,0.2,0.35,0.33,0.59c-0.02,0.1-0.03,0.14-0.05,0.24
			C-241.63,140.63-242.22,140.52-243.41,140.29z"/>
		<path class="st20" d="M-242,139.58c-0.13-0.23-0.2-0.35-0.33-0.59c0.02-0.1,0.03-0.14,0.05-0.24c5.17,0.99,7.76,1.49,12.93,2.49
			c0.18,0.43,0.27,0.64,0.45,1.07c0.13,0.23,0.2,0.35,0.33,0.59c-0.02,0.1-0.03,0.14-0.05,0.24c-1.19-0.23-1.78-0.34-2.97-0.57
			c-1.12,5.1-1.68,7.65-2.8,12.75c-0.13-0.03-0.2-0.04-0.33-0.06c-0.22-0.26-0.34-0.39-0.56-0.65c-0.32-0.3-0.48-0.45-0.79-0.74
			c1.02-4.66,1.53-7,2.56-11.66c-1.56-0.3-2.33-0.45-3.89-0.75c-0.66,3.03-1,4.55-1.66,7.58c-0.45-0.09-0.68-0.13-1.14-0.22
			c-0.6-0.91-1.4-2.52-1.26-3.2c0.1-0.46,0.53-0.47,1.46-0.74c0.12-0.57,0.2-1.33,0.53-2.83c0.08-0.38,0.12-0.56,0.21-0.94
			c-0.92-0.18-1.38-0.26-2.29-0.44C-241.73,140.22-241.82,140.01-242,139.58z"/>
		<path class="st20" d="M-219.7,144.85c-1.12,5.1-1.68,7.65-2.8,12.76c-0.13-0.03-0.2-0.04-0.33-0.06
			c-0.22-0.26-0.34-0.39-0.56-0.65c-0.32-0.3-0.48-0.45-0.79-0.74c0,0,0.48-1.57,0.87-3.34c-0.53,0.56-1.52,1.21-3.07,0.91
			c-1.22-0.23-2.11-1.08-2.77-2.24c-0.55-0.97-0.98-2.28-0.73-3.42c0.42-1.9,2.19-2.83,4.03-2.48c0.48,0.09,1.01,0.29,1.38,0.54
			c0.21,0.72,0.32,1.09,0.54,1.81c-0.07,0.06-0.1,0.09-0.17,0.15c-0.44-0.27-0.96-0.48-1.45-0.57c-1.35-0.26-2.63,0.27-2.94,1.69
			c-0.24,1.09,0.3,2.49,1.96,2.81c1.7,0.33,3.43-0.71,3.89-2.8c0.41-1.89,0.62-2.83,1.03-4.72c-3.24-0.62-4.86-0.93-8.11-1.56
			c-0.18-0.43-0.27-0.64-0.45-1.07c-0.13-0.23-0.2-0.35-0.33-0.59c0.02-0.1,0.03-0.14,0.05-0.24c5.19,1,7.79,1.5,12.98,2.49
			c0.18,0.43,0.27,0.64,0.45,1.07c0.13,0.23,0.2,0.35,0.33,0.59c-0.02,0.1-0.03,0.14-0.05,0.24
			C-217.92,145.19-218.51,145.07-219.7,144.85z"/>
		<path class="st20" d="M-218.27,144.14c-0.13-0.23-0.2-0.35-0.33-0.59c0.02-0.1,0.03-0.14,0.05-0.24
			c5.11,0.98,7.67,1.47,12.78,2.46c0.19,0.43,0.28,0.64,0.47,1.07c0.13,0.23,0.2,0.35,0.33,0.59c-0.02,0.1-0.03,0.14-0.05,0.24
			c-1.19-0.23-1.78-0.34-2.97-0.57c-1.12,5.1-1.68,7.65-2.8,12.75c-0.13-0.03-0.2-0.04-0.33-0.06c-0.23-0.26-0.34-0.39-0.56-0.65
			c-0.32-0.3-0.48-0.45-0.79-0.74c0,0,0.47-1.96,1.52-6.74c-0.93-0.18-1.39-0.27-2.32-0.45c-1.88-0.36-2.95,0.46-3.25,1.83
			c-0.31,1.42,0.19,3.27,1.14,5.09c-0.5,0.14-0.74,0.21-1.24,0.35c-0.81-1.68-1.96-4.36-1.48-6.57c0.44-1.99,2.15-3.05,4.42-2.61
			c1.22,0.24,1.84,0.35,3.06,0.59c0.28-1.27,0.42-1.9,0.69-3.17c-3.16-0.61-4.75-0.91-7.91-1.52
			C-218,144.78-218.09,144.57-218.27,144.14z"/>
	</g>
</g>
</svg>
